<svg width="248" height="156" viewBox="0 0 248 156" fill="none" xmlns="http://www.w3.org/2000/svg">
<path d="M0.5 168.422C2.14465 168.422 3.78929 168.422 19.3561 159.212C34.9229 150.002 64.3621 131.582 84.2972 115.35C104.232 99.118 113.771 85.6319 119.096 76.4643C124.422 67.2966 125.244 62.8561 125.339 59.335C125.433 55.814 124.775 53.347 123.285 51.2538C120.197 46.9158 113.996 45.6571 106.876 45.8191C98.0395 46.0201 89.0866 49.4597 81.7056 52.7739C78.3567 54.2776 76.1337 56.0881 74.9476 57.7577C73.7615 59.4273 73.7615 61.0719 75.2417 62.0014C76.7218 62.9308 79.6822 63.0953 85.4011 62.1932C91.12 61.2912 99.5077 59.3176 124.716 49.9132C149.924 40.5088 191.698 23.7334 214.615 13.6936C237.533 3.65381 240.329 0.857915 242.345 -1.73365C244.361 -4.32521 245.512 -6.62772 246.698 -9" stroke="#ABABAB" stroke-linecap="square" stroke-dasharray="2 2"/>
</svg>
