<svg width="233" height="112" viewBox="0 0 233 112" fill="none" xmlns="http://www.w3.org/2000/svg">
<path d="M-5 24.3651C-2.89928 24.1563 2.13736 21.8531 11.5842 17.5441C17.5633 14.8169 26.46 12.1911 38.4948 9.22352C50.5296 6.25595 65.5636 3.33267 78.8417 1.82674C92.1198 0.320807 103.186 0.320807 111.08 0.73842C123.405 1.39048 130.382 4.73104 135.118 8.62242C144.136 16.0321 148.731 29.1486 150.547 36.8934C152.305 44.3891 145.416 62.2284 139.708 72.7447C137.683 76.4773 132.122 77.5092 125.19 78.3539C115.408 79.5461 106.812 76.6866 102.073 73.7412C98.3302 71.4152 97.0868 68.0371 96.4541 65.6168C95.8921 63.4672 97.283 60.6592 100.431 56.9798C104.838 51.8287 112.444 49.4723 119.805 48.1024C127.489 46.6728 136.684 48.8143 150.228 54.6861C158.954 58.4693 170.662 65.5694 182.536 73.9184C194.409 82.2675 205.893 92.0813 213.271 99.4338C220.649 106.786 223.572 111.38 225.809 116.356C228.046 121.333 229.507 126.553 231.646 131.931" stroke="#ABABAB" stroke-linecap="square" stroke-dasharray="2 2"/>
</svg>
