<svg width="248" height="179" viewBox="0 0 248 179" fill="none" xmlns="http://www.w3.org/2000/svg">
<path d="M0.501139 178.499C2.14953 178.499 3.79792 178.499 19.4002 169.268C35.0025 160.037 64.5087 141.575 84.4892 125.306C104.47 109.037 114.03 95.5199 119.368 86.3313C124.705 77.1428 125.529 72.6921 125.624 69.1631C125.719 65.634 125.06 63.1614 123.566 61.0635C120.471 56.7156 114.255 55.454 107.12 55.6163C98.2628 55.8179 89.2895 59.2653 81.8917 62.587C78.5352 64.0942 76.3071 65.9088 75.1183 67.5822C73.9295 69.2555 73.9295 70.9039 75.413 71.8355C76.8966 72.7671 79.8637 72.9319 85.5956 72.0278C91.3275 71.1237 99.7343 69.1456 125 59.7198C150.265 50.294 192.134 33.4804 215.104 23.4177C238.074 13.3551 240.877 10.5528 242.897 7.95533C244.918 5.35786 246.071 3.05011 247.26 0.672426" stroke="#ABABAB" stroke-width="1.00228" stroke-linecap="square" stroke-dasharray="4 4"/>
</svg>
