<svg width="238" height="133" viewBox="0 0 238 133" fill="none" xmlns="http://www.w3.org/2000/svg">
<path d="M0.547238 24.3812C2.64935 24.1723 7.68933 21.8676 17.1424 17.5557C23.1255 14.8267 32.0281 12.1992 44.0709 9.22963C56.1136 6.2601 71.1576 3.33488 84.4445 1.82795C97.7315 0.32102 108.805 0.32102 116.704 0.738909C129.037 1.3914 136.019 4.73418 140.758 8.62814C149.782 16.0427 154.381 29.1679 156.198 36.9179C157.956 44.4185 151.063 62.2697 145.352 72.7929C143.325 76.528 137.76 77.5606 130.824 78.4059C121.035 79.5988 112.433 76.7375 107.691 73.7901C103.946 71.4625 102.702 68.0822 102.069 65.6603C101.506 63.5092 102.898 60.6995 106.048 57.0176C110.458 51.8631 118.069 49.5051 125.435 48.1343C133.124 46.7037 142.325 48.8466 155.878 54.7224C164.61 58.508 176.326 65.6128 188.207 73.9674C200.089 82.322 211.581 92.1424 218.963 99.4997C226.346 106.857 229.271 111.454 231.509 116.434C233.748 121.413 235.21 126.637 237.35 132.019" stroke="#ABABAB" stroke-width="1.00066" stroke-linecap="square" stroke-dasharray="4 4"/>
</svg>
