<svg width="16" height="10" viewBox="0 0 16 10" fill="none" xmlns="http://www.w3.org/2000/svg">
<path d="M8 0C5.86667 0 4.53333 1.11111 4 3.33333C4.8 2.22222 5.73333 1.80556 6.8 2.08333C7.40867 2.24167 7.84333 2.70139 8.32533 3.21111C9.11 4.04028 10.0173 5 12 5C14.1333 5 15.4667 3.88889 16 1.66667C15.2 2.77778 14.2667 3.19444 13.2 2.91667C12.5913 2.75833 12.1567 2.29861 11.6747 1.78889C10.8907 0.959722 9.98333 0 8 0ZM4 5C1.86667 5 0.533333 6.11111 0 8.33333C0.8 7.22222 1.73333 6.80556 2.8 7.08333C3.40867 7.24167 3.84333 7.70139 4.32533 8.21111C5.11 9.04028 6.01733 10 8 10C10.1333 10 11.4667 8.88889 12 6.66667C11.2 7.77778 10.2667 8.19444 9.2 7.91667C8.59133 7.75833 8.15667 7.29861 7.67467 6.78889C6.89067 5.95972 5.98333 5 4 5Z" fill="#06B6D4"/>
</svg>
