<svg width="14" height="14" viewBox="0 0 14 14" fill="none" xmlns="http://www.w3.org/2000/svg">
<g clip-path="url(#clip0_80_627)">
<path d="M13.2475 7.66769C12.2792 8.88803 11.2338 10.2828 9.142 10.2828C7.27358 10.2828 6.57708 8.63486 6.52867 7.29611C6.93758 8.16178 7.73792 8.86236 8.98683 8.83028C11.3884 8.75269 13.0352 6.58328 13.0352 4.60753C13.0352 2.24503 11.2723 0.540527 8.21217 0.540527C6.0235 0.540527 3.31217 1.37353 1.53008 2.69011C1.51083 4.04636 2.26625 5.80861 2.5375 5.61494C4.08217 4.50428 5.30717 3.78911 6.49483 3.43094C4.73667 5.39211 0.516833 9.94561 0 10.7477C0.0583333 11.4833 0.968333 13.459 1.414 13.459C1.54933 13.459 1.66542 13.3814 1.80133 13.2461C2.9353 11.9782 4.01354 10.6615 5.033 9.29986C5.1625 11.1105 6.05267 13.3237 8.54117 13.3237C10.7689 13.3237 12.9768 11.716 13.9837 8.09411C14.1003 7.64844 13.5578 7.30019 13.2481 7.66828L13.2475 7.66769ZM10.7106 4.74344C10.7106 5.88619 9.58708 6.44794 8.561 6.44794C8.01208 6.44794 7.59033 6.30386 7.25725 6.11661C7.87033 5.18794 8.47758 4.23536 9.12975 3.21569C10.2801 3.41053 10.7106 4.04986 10.7106 4.74344Z" fill="#FF4438"/>
</g>
<defs>
<clipPath id="clip0_80_627">
<rect width="14" height="14" fill="white"/>
</clipPath>
</defs>
</svg>
