<svg width="12" height="12" viewBox="0 0 12 12" fill="none" xmlns="http://www.w3.org/2000/svg">
<g clip-path="url(#clip0_85_5293)">
<path d="M5.93057 0.22255C7.56946 0.22255 8.96761 0.801255 10.125 1.95866C11.2824 3.11607 11.8611 4.50959 11.8611 6.13923C11.8611 7.43553 11.4815 8.59756 10.7222 9.62534C9.96298 10.6531 8.99076 11.3707 7.80557 11.7781C7.54631 11.8152 7.41668 11.7133 7.41668 11.4726V9.86146C7.41668 9.36146 7.27779 8.99108 7.00001 8.75034C7.81483 8.65775 8.46761 8.40775 8.95835 8.00034C9.44909 7.59293 9.69446 6.87997 9.69446 5.86145C9.69446 5.23182 9.49076 4.69478 9.08335 4.25034C9.28705 3.76885 9.26853 3.24107 9.02779 2.667C8.69446 2.57441 8.15742 2.77811 7.41668 3.27811C6.9352 3.14848 6.4352 3.08367 5.91668 3.08367C5.39816 3.08367 4.90742 3.14848 4.44445 3.27811C4.11112 3.05589 3.81019 2.89385 3.54167 2.792C3.27315 2.69015 3.08334 2.64848 2.97223 2.667H2.80556C2.58334 3.24107 2.56482 3.76885 2.75 4.25034C2.3426 4.69478 2.13889 5.23182 2.13889 5.86145C2.13889 6.87997 2.38889 7.59293 2.88889 8.00034C3.38889 8.40775 4.03704 8.65775 4.83334 8.75034C4.62964 8.93553 4.50927 9.20405 4.47223 9.5559C3.69445 9.88923 3.12038 9.72257 2.75 9.0559C2.52778 8.68553 2.22223 8.48182 1.83334 8.44479C1.7963 8.44479 1.75463 8.44942 1.70834 8.45868C1.66204 8.46794 1.61574 8.50034 1.56945 8.5559C1.52315 8.61145 1.60185 8.69479 1.80556 8.8059C2.06482 8.93553 2.27778 9.22257 2.44445 9.66701C2.46297 9.70405 2.48149 9.74572 2.5 9.79201C2.51852 9.83831 2.57871 9.92627 2.68056 10.0559C2.78241 10.1855 2.90278 10.2828 3.04167 10.3476C3.18056 10.4124 3.37038 10.4726 3.61112 10.5281C3.85186 10.5837 4.12964 10.5652 4.44445 10.4726V11.4726C4.44445 11.7133 4.31482 11.8152 4.05556 11.7781C2.87038 11.3707 1.89815 10.6531 1.13889 9.62534C0.37963 8.59756 0 7.43553 0 6.13923C0 4.50959 0.578705 3.11607 1.73611 1.95866C2.89352 0.801255 4.29167 0.22255 5.93057 0.22255Z" fill="black"/>
</g>
<defs>
<clipPath id="clip0_85_5293">
<rect width="11.5845" height="11.5845" fill="white" transform="scale(1.03587)"/>
</clipPath>
</defs>
</svg>
