<svg width="13" height="14" viewBox="0 0 13 14" fill="none" xmlns="http://www.w3.org/2000/svg">
<path d="M6.20667 14.0001C6.01942 14.0001 5.83275 13.9511 5.66883 13.8561L3.95617 12.8428C3.70067 12.6999 3.8255 12.6491 3.9095 12.6194C4.25075 12.501 4.31958 12.4736 4.68417 12.2671C4.72208 12.2455 4.77225 12.2536 4.81133 12.277L6.12733 13.0581C6.17517 13.0843 6.24225 13.0843 6.286 13.0581L11.4164 10.0971C11.4643 10.0696 11.4946 10.0148 11.4946 9.95823V4.0374C11.4946 3.97965 11.4637 3.9254 11.4147 3.89623L6.28658 0.937562C6.23933 0.910146 6.17633 0.910146 6.1285 0.937562L1.00158 3.89681C0.952 3.9254 0.9205 3.9814 0.9205 4.0374V9.95823C0.9205 10.0148 0.952 10.0685 1.00158 10.0953L2.40683 10.9073C3.16925 11.2888 3.6365 10.8396 3.6365 10.3881V4.54256C3.6365 4.45973 3.703 4.39498 3.78583 4.39498H4.43625C4.51733 4.39498 4.585 4.46031 4.585 4.54256V10.3881C4.585 11.4061 4.03083 11.9894 3.066 11.9894C2.76967 11.9894 2.53575 11.9894 1.88417 11.668L0.537833 10.8939C0.205333 10.702 0 10.3426 0 9.95823V4.0374C0 3.65298 0.205917 3.29365 0.537833 3.10231L5.66825 0.137812C5.99317 -0.0459375 6.42425 -0.0459375 6.74625 0.137812L11.8761 3.10231C12.2086 3.29423 12.4151 3.65298 12.4151 4.0374V9.95823C12.4151 10.3426 12.2086 10.7008 11.8761 10.8939L6.74625 13.8561C6.58292 13.9511 6.39683 14.0001 6.20667 14.0001ZM10.3489 8.16273C10.3489 7.0544 9.59992 6.75923 8.02317 6.55098C6.43008 6.3404 6.26792 6.23131 6.26792 5.85856C6.26792 5.55056 6.405 5.13931 7.58508 5.13931C8.63917 5.13931 9.02767 5.36623 9.1875 6.07673C9.2015 6.14381 9.26275 6.19281 9.33158 6.19281H9.99717C10.0386 6.19281 10.0777 6.17473 10.1057 6.14556C10.1337 6.11406 10.1488 6.07381 10.1447 6.03123C10.0415 4.8074 9.22833 4.2369 7.58508 4.2369C6.12208 4.2369 5.24942 4.85406 5.24942 5.88948C5.24942 7.0124 6.11742 7.32273 7.5215 7.46156C9.2015 7.62606 9.33158 7.87165 9.33158 8.20181C9.33158 8.77523 8.87133 9.01965 7.79042 9.01965C6.433 9.01965 6.13433 8.67898 6.034 8.00348C6.02233 7.93115 5.9605 7.87806 5.88642 7.87806H5.22317C5.14092 7.87806 5.075 7.9434 5.075 8.02565C5.075 8.89015 5.54517 9.92031 7.79042 9.92031C9.41675 9.9209 10.3489 9.28098 10.3489 8.16273Z" fill="#5FA04E"/>
</svg>
