<svg width="14" height="14" viewBox="0 0 14 14" fill="none" xmlns="http://www.w3.org/2000/svg">
<path d="M8.30083 7.00243C8.30083 7.34826 8.16349 7.67994 7.91901 7.92453C7.67453 8.16912 7.34291 8.30661 6.99708 8.30677C6.65115 8.30677 6.31939 8.16935 6.07478 7.92474C5.83017 7.68013 5.69275 7.34837 5.69275 7.00243C5.69275 6.6566 5.83009 6.32493 6.07457 6.08034C6.31906 5.83574 6.65067 5.69826 6.9965 5.6981C7.34243 5.6981 7.67419 5.83552 7.9188 6.08013C8.16341 6.32474 8.30083 6.6565 8.30083 7.00243ZM9.8455 0.766602C9.06033 0.766602 8.03308 1.3266 6.99417 2.2961C5.95583 1.33185 4.928 0.778268 4.14342 0.778268C3.90425 0.778268 3.68667 0.832518 3.49825 0.940435C2.69617 1.40302 2.5165 2.84443 2.93067 4.65335C1.155 5.20168 0 6.07843 0 7.00243C0 7.92993 1.16083 8.80902 2.94175 9.35327C2.53108 11.1692 2.71425 12.6129 3.51808 13.0749C3.70475 13.184 3.92058 13.2354 4.16092 13.2354C4.9455 13.2354 5.97333 12.6754 7.01225 11.7047C8.05058 12.6695 9.07842 13.2231 9.863 13.2231C10.1022 13.2231 10.3197 13.1706 10.5082 13.0627C11.3097 12.6007 11.4899 11.1593 11.0757 9.34977C12.845 8.8061 14 7.9276 14 7.00243C14 6.07493 12.8392 5.19585 11.0583 4.65043C11.4689 2.83627 11.2857 1.39135 10.4819 0.928768C10.2964 0.821435 10.0812 0.767185 9.8455 0.766602ZM9.84258 1.40243V1.40593C9.97383 1.40593 10.0794 1.4316 10.1681 1.48002C10.5566 1.70285 10.7252 2.55043 10.5939 3.64068C10.5624 3.90902 10.5111 4.19193 10.4481 4.48068C9.88808 4.34302 9.27792 4.23743 8.63567 4.16918C8.25067 3.64127 7.85108 3.16177 7.44858 2.74177C8.37725 1.87843 9.24933 1.40477 9.84317 1.40302L9.84258 1.40243ZM4.14342 1.4141C4.73375 1.4141 5.60992 1.88543 6.54092 2.7441C6.14075 3.1641 5.74175 3.64068 5.36258 4.1686C4.71683 4.23685 4.10608 4.34243 3.54667 4.48243C3.48133 4.1966 3.43292 3.9201 3.3985 3.6541C3.26433 2.56443 3.43 1.71743 3.815 1.49168C3.92583 1.43918 4.04833 1.41702 4.14342 1.4141ZM6.99125 3.19327C7.25667 3.46627 7.52208 3.77193 7.78458 4.1056C7.52792 4.09393 7.26542 4.08577 7 4.08577C6.73167 4.08577 6.46625 4.0916 6.20667 4.1056C6.46333 3.77193 6.72875 3.46685 6.99125 3.19327ZM7 4.7251C7.43167 4.7251 7.86158 4.74493 8.2845 4.77935C8.52133 5.11885 8.75233 5.4811 8.97458 5.86435C9.19158 6.23768 9.38875 6.61685 9.56842 6.99952C9.38875 7.3816 9.19158 7.76368 8.9775 8.13702C8.75583 8.52202 8.52658 8.88835 8.28917 9.22785C7.8645 9.2646 7.434 9.28502 7 9.28502C6.56833 9.28502 6.13842 9.2646 5.7155 9.23077C5.47867 8.89127 5.24767 8.52843 5.02542 8.14577C4.80842 7.77243 4.61125 7.39327 4.43158 7.0106C4.60833 6.62735 4.80842 6.24468 5.0225 5.87077C5.24417 5.48577 5.47342 5.1206 5.71083 4.7811C6.1355 4.74377 6.566 4.72393 7 4.72393V4.7251ZM4.87958 4.87327C4.73958 5.09318 4.59958 5.31835 4.46892 5.54993C4.33767 5.77743 4.21517 6.0061 4.0985 6.23477C3.94392 5.8521 3.81267 5.4706 3.70417 5.09902C4.0775 5.01152 4.47125 4.93335 4.87958 4.87327ZM9.11458 4.87327C9.52 4.93335 9.91083 5.00743 10.2847 5.09902C10.1797 5.46768 10.0485 5.84685 9.89975 6.2266C9.78308 5.9991 9.66058 5.76985 9.52642 5.54177C9.39517 5.3131 9.25517 5.09027 9.11517 4.87327H9.11458ZM10.9013 5.26702C11.1837 5.35452 11.452 5.45193 11.7034 5.55752C12.7137 5.98918 13.3671 6.55385 13.3671 7.00185C13.3642 7.44985 12.7108 8.01685 11.7005 8.4456C11.4555 8.5506 11.1872 8.6451 10.9101 8.73318C10.7467 8.17435 10.5332 7.59218 10.2684 6.99485C10.5309 6.4016 10.7409 5.82235 10.9013 5.26585V5.26702ZM3.08758 5.26935C3.24975 5.82935 3.46383 6.41093 3.72925 7.00768C3.46675 7.60093 3.25558 8.18018 3.09575 8.73668C2.81342 8.64918 2.54508 8.55118 2.29658 8.44502C1.28625 8.0151 0.632917 7.44985 0.632917 7.00185C0.632917 6.55385 1.28625 5.98568 2.29658 5.55752C2.54158 5.45252 2.80992 5.35802 3.08758 5.26935ZM9.89975 7.76602C10.0543 8.14927 10.1856 8.53135 10.2941 8.90235C9.92075 8.99393 9.52642 9.07152 9.11808 9.12985C9.25808 8.9111 9.39808 8.68535 9.52933 8.45435C9.66058 8.22685 9.7825 7.99468 9.89975 7.76602ZM4.0985 7.77768C4.21517 8.00635 4.33767 8.23443 4.47183 8.4631C4.606 8.6906 4.74308 8.91343 4.88308 9.12985C4.47767 9.07035 4.08683 8.99568 3.71292 8.90469C3.81792 8.53718 3.94975 8.15685 4.09792 7.7771L4.0985 7.77768ZM10.4533 9.5201C10.5187 9.80768 10.57 10.0848 10.6015 10.3502C10.7357 11.4399 10.57 12.2869 10.185 12.5132C10.0992 12.5657 9.98783 12.5879 9.85658 12.5879C9.26625 12.5879 8.39008 12.1171 7.45908 11.2579C7.85925 10.8379 8.25825 10.3619 8.63742 9.83452C9.28317 9.76568 9.89392 9.6601 10.4533 9.5201ZM3.5525 9.52593C4.1125 9.66243 4.72267 9.76802 5.36492 9.83627C5.74992 10.3642 6.1495 10.8437 6.552 11.2631C5.62158 12.1282 4.74833 12.6019 4.1545 12.6019C4.02617 12.5989 3.91767 12.5727 3.83192 12.5249C3.44342 12.3032 3.27483 11.455 3.40608 10.3648C3.43758 10.0964 3.4895 9.8141 3.5525 9.52593ZM6.2125 9.89927C6.46917 9.91093 6.73167 9.9191 6.99708 9.9191C7.26542 9.9191 7.53083 9.91327 7.79042 9.89927C7.53375 10.2329 7.26833 10.538 7.00583 10.8122C6.74042 10.538 6.475 10.2329 6.2125 9.89927Z" fill="#61DAFB"/>
</svg>
