<svg width="14" height="14" viewBox="0 0 14 14" fill="none" xmlns="http://www.w3.org/2000/svg">
<g clip-path="url(#clip0_74_188)">
<path d="M13.7429 8.5883C13.7349 8.56386 13.7238 8.54052 13.71 8.51883C13.6289 8.36529 13.4319 8.31944 13.1224 8.38343C12.1579 8.58241 11.7845 8.45997 11.6491 8.37229C12.4319 7.17751 13.0754 5.73446 13.4231 4.3883C13.5814 3.77539 13.8887 2.33281 13.4944 1.6282C13.4692 1.57997 13.4397 1.5341 13.4063 1.49112C12.6542 0.530017 11.5503 0.0144675 10.214 0.000292485C9.34208 -0.00892418 8.59786 0.202184 8.39626 0.279942C8.29641 0.261306 8.19606 0.245433 8.09532 0.232342C7.8428 0.186615 7.58694 0.161681 7.33034 0.157792C6.64072 0.147059 6.04479 0.311909 5.55129 0.648142C5.0512 0.460834 2.75782 -0.311441 1.33851 0.694109C0.545823 1.25568 0.179898 2.25943 0.250831 3.67751C0.274689 4.15468 0.546523 5.62234 0.975506 7.02794C1.24372 7.90673 1.52308 8.60405 1.81166 9.11744C2.13424 9.69739 2.46843 10.0469 2.81166 10.1613C3.07265 10.2483 3.47241 10.2454 3.89556 9.73671C4.36292 9.17467 4.82323 8.67166 5.02991 8.44935C5.28371 8.58673 5.55864 8.66081 5.84074 8.66938C5.84079 8.67018 5.84087 8.67098 5.84097 8.67177C5.79185 8.7303 5.74378 8.78969 5.69677 8.84993C5.49908 9.10087 5.45796 9.15308 4.82166 9.2841C4.64071 9.32143 4.15992 9.42054 4.15292 9.75748C4.15146 9.82888 4.17211 9.89217 4.20653 9.94811C4.33889 10.1949 4.74413 10.3038 4.79861 10.3174C5.57707 10.512 6.25951 10.3711 6.76526 9.92151C6.75535 11.2229 6.81047 12.4983 6.96675 12.8892C7.09578 13.2117 7.41113 14.0001 8.40711 14C8.55324 14 8.71412 13.983 8.89105 13.9451C9.93049 13.7222 10.3819 13.2628 10.5565 12.25C10.6441 11.7421 10.7907 10.5727 10.8708 9.85763C10.8806 9.81663 10.8916 9.78723 10.904 9.77818C10.9044 9.77789 10.9447 9.75071 11.1532 9.79609C11.1617 9.79794 11.1704 9.79926 11.1791 9.80006L11.3272 9.81307L11.3359 9.81365C11.8298 9.83605 12.4508 9.73047 12.8124 9.56235C13.1879 9.38805 13.8657 8.96018 13.7429 8.5883ZM1.38296 6.92796C0.949256 5.50708 0.695856 4.07832 0.675789 3.67768C0.612439 2.41103 0.919098 1.52933 1.58713 1.05694C2.65854 0.299426 4.41035 0.741476 5.15013 0.981109C5.14826 0.982976 5.14628 0.984667 5.14441 0.986592C3.96386 2.17893 3.99186 4.21593 3.99478 4.34047C3.99466 4.38848 3.99863 4.45649 4.00423 4.55006C4.02453 4.89265 4.06233 5.53029 3.96136 6.25246C3.8675 6.92353 4.07435 7.58036 4.52882 8.05449C4.57584 8.10355 4.62496 8.14963 4.67571 8.19298C4.47341 8.40963 4.03381 8.88866 3.56591 9.45158C3.23476 9.8497 3.00609 9.7734 2.9309 9.74832C2.70229 9.67208 2.45665 9.40584 2.20867 8.97698C1.92891 8.48756 1.64663 7.79182 1.38296 6.92796ZM4.88716 9.89543C4.78736 9.87047 4.69636 9.8294 4.63505 9.79207C4.68691 9.76908 4.77353 9.73945 4.91697 9.70988C5.66556 9.55582 5.78118 9.44703 6.03365 9.12642C6.09151 9.05293 6.15708 8.96968 6.24791 8.86824C6.26744 8.84634 6.2821 8.82053 6.2909 8.79253C6.39053 8.70427 6.4498 8.72842 6.54576 8.7682C6.63676 8.80588 6.72531 8.91987 6.7613 9.0454C6.77827 9.10467 6.79741 9.21719 6.73493 9.30463C6.20742 10.043 5.439 10.0335 4.88716 9.89543ZM6.10866 7.5691L6.07804 7.65135C6.00046 7.85937 5.9283 8.05274 5.88356 8.23643C5.49424 8.23521 5.11542 8.0689 4.82743 7.76837C4.46116 7.38623 4.29479 6.85463 4.37097 6.3098C4.47761 5.54686 4.43823 4.8825 4.41706 4.52562C4.41414 4.47563 4.41151 4.43188 4.40994 4.39734C4.58243 4.24445 5.38171 3.81623 5.95163 3.94678C6.21174 4.00639 6.37023 4.18343 6.43609 4.48811C6.77711 6.06533 6.48124 6.72268 6.24347 7.25095C6.19447 7.3598 6.14821 7.46264 6.10866 7.5691ZM10.4042 10.2364C10.3943 10.3395 10.3833 10.4557 10.3681 10.584L10.2829 10.8397C10.2762 10.8599 10.2726 10.8811 10.2723 10.9025C10.2689 11.1794 10.2408 11.281 10.2052 11.4096C10.1683 11.5433 10.1263 11.6949 10.1006 12.0265C10.0364 12.8515 9.58831 13.3254 8.69056 13.5178C7.80651 13.7074 7.64971 13.228 7.51152 12.8051C7.49737 12.7608 7.48242 12.7167 7.46666 12.6729C7.34101 12.3312 7.35519 11.8493 7.37485 11.1824C7.38447 10.8551 7.36032 10.0734 7.18223 9.63883C7.1848 9.46779 7.18841 9.29413 7.19331 9.11861C7.19391 9.09638 7.19089 9.07419 7.18439 9.05293C7.17875 9.01192 7.17019 8.97138 7.15878 8.93159C7.08726 8.68175 6.91302 8.47274 6.70396 8.38612C6.62089 8.3517 6.46841 8.28858 6.28524 8.33543C6.32432 8.17443 6.39205 7.99272 6.46549 7.7959L6.49635 7.71307C6.53106 7.61973 6.57451 7.52308 6.6206 7.4207C6.86939 6.86793 7.21011 6.11094 6.84028 4.40067C6.7018 3.76011 6.23921 3.44733 5.53805 3.51995C5.11764 3.56347 4.73311 3.7331 4.54125 3.83034C4.50278 3.84984 4.4647 3.87008 4.42703 3.89107C4.48058 3.24567 4.68288 2.03951 5.43952 1.27639C5.49573 1.21976 5.55478 1.16602 5.61645 1.11539C5.64706 1.10942 5.67593 1.09658 5.70086 1.07783C6.13976 0.744976 6.68931 0.581643 7.33536 0.592201C7.574 0.596109 7.80301 0.611976 8.02031 0.639451C9.15139 0.846184 9.91258 1.48342 10.3746 2.02936C10.8496 2.5907 11.1068 3.15607 11.2094 3.46103C10.4376 3.38252 9.91246 3.535 9.64629 3.91545C9.06727 4.74314 9.96304 6.34964 10.3936 7.12168C10.4725 7.2632 10.5407 7.38547 10.5621 7.43744C10.7023 7.77723 10.8838 8.00403 11.0164 8.16964C11.057 8.22039 11.0964 8.26963 11.1263 8.31256C10.8925 8.37993 10.4725 8.53568 10.5108 9.31414C10.5036 9.40532 10.4861 9.57483 10.4621 9.78944C10.4352 9.9106 10.4212 10.058 10.4042 10.2364ZM10.9236 9.29075C10.9 8.80565 11.0806 8.75496 11.2717 8.70129C11.2981 8.69405 11.3244 8.68615 11.3504 8.67761C11.3751 8.69945 11.4012 8.71953 11.4287 8.73769C11.7614 8.95732 12.3517 8.98345 13.1827 8.81609C13.0651 8.91928 12.88 9.04908 12.6266 9.16673C12.3875 9.27774 11.9874 9.36098 11.6073 9.37883C11.1875 9.39843 10.9739 9.33176 10.9236 9.29075ZM11.2558 3.88255C11.2524 4.08718 11.2242 4.27292 11.1943 4.46688C11.1623 4.67548 11.129 4.89119 11.1206 5.15299C11.1123 5.40779 11.1442 5.67268 11.175 5.92888C11.2372 6.4463 11.301 6.97906 11.0539 7.5047C11.0129 7.43201 10.9764 7.35689 10.9445 7.27977C10.9138 7.20533 10.8471 7.08575 10.7549 6.92032C10.3958 6.27626 9.55471 4.76805 9.98526 4.15263C10.2066 3.83606 10.7674 3.82241 11.2558 3.88255ZM11.3891 7.97388C11.3726 7.9529 11.356 7.93202 11.3393 7.91123L11.3186 7.88533C11.7422 7.18562 11.6594 6.49338 11.5856 5.87953C11.5554 5.62765 11.5268 5.38977 11.534 5.16635C11.5415 4.92946 11.5729 4.72634 11.6031 4.52988C11.6404 4.28779 11.6783 4.03737 11.6678 3.74208C11.6756 3.71111 11.6788 3.67453 11.6747 3.63113C11.6481 3.34793 11.3248 2.50063 10.6659 1.73355C10.3115 1.32096 9.79696 0.860184 9.09737 0.543842C9.40368 0.481659 9.81651 0.425134 10.2783 0.435401C11.475 0.462001 12.4218 0.909943 13.0924 1.7668C13.1066 1.7854 13.1196 1.80493 13.1313 1.82525C13.5531 2.61602 12.9702 5.48573 11.3891 7.97388ZM6.24604 4.40609C6.23146 4.51074 6.06585 4.65255 5.88373 4.65255C5.86794 4.65256 5.85217 4.65147 5.83654 4.64928C5.72728 4.63412 5.61691 4.56528 5.54143 4.46518C5.51471 4.42989 5.47126 4.36135 5.47989 4.29928C5.4831 4.27589 5.49511 4.24183 5.53385 4.21248C5.6028 4.16033 5.73906 4.14097 5.88945 4.16191C6.07396 4.18763 6.2643 4.27496 6.24604 4.40609ZM10.8722 4.16611C10.8786 4.21231 10.8436 4.28336 10.7829 4.34706C10.743 4.38888 10.6592 4.46145 10.5449 4.47726C10.5304 4.47927 10.5158 4.48029 10.5012 4.48029C10.33 4.48029 10.1853 4.34356 10.1741 4.26347C10.1601 4.16051 10.3281 4.08228 10.5014 4.05813C10.6746 4.03398 10.8579 4.06327 10.8722 4.16611Z" fill="#4169E1"/>
</g>
<defs>
<clipPath id="clip0_74_188">
<rect width="14" height="14" fill="white"/>
</clipPath>
</defs>
</svg>
