<svg width="12" height="12" viewBox="0 0 12 12" fill="none" xmlns="http://www.w3.org/2000/svg">
<path d="M5.12499 1.87498H3.87499C3.34455 1.87498 2.83584 2.0857 2.46077 2.46077C2.0857 2.83584 1.87498 3.34455 1.87498 3.87499V8.125C1.87498 8.65543 2.0857 9.16414 2.46077 9.53921C2.83584 9.91428 3.34455 10.125 3.87499 10.125H8.125C8.65543 10.125 9.16414 9.91428 9.53921 9.53921C9.91428 9.16414 10.125 8.65543 10.125 8.125V6.87499M6.87499 1.87498H9.625C9.763 1.87498 9.888 1.93098 9.9785 2.02148M9.9785 2.02148C10.0723 2.11523 10.125 2.24239 10.125 2.37499V5.12499M9.9785 2.02148L9.625 2.37499L6.37499 5.62499" stroke="black" stroke-width="0.857144" stroke-linecap="round" stroke-linejoin="round"/>
</svg>
