<svg width="11" height="11" viewBox="0 0 11 11" fill="none" xmlns="http://www.w3.org/2000/svg">
<g clip-path="url(#clip0_86_5666)">
<path fill-rule="evenodd" clip-rule="evenodd" d="M11.0002 11.0002H8.80016V7.15067C8.80016 6.09465 8.3343 5.50547 7.49884 5.50547C6.58967 5.50547 6.05011 6.1194 6.05011 7.15067V11.0002H3.85007V3.85007H6.05011V4.65414C6.05011 4.65414 6.74037 3.44293 8.2958 3.44293C9.85178 3.44293 11.0002 4.39244 11.0002 6.35707V11.0002ZM1.34313 2.70654C0.601162 2.70654 0 2.10047 0 1.353C0 0.60609 0.601162 0 1.34313 0C2.08454 0 2.6857 0.60609 2.6857 1.353C2.68625 2.10047 2.08454 2.70654 1.34313 2.70654ZM0 11.0002H2.75005V3.85007H0V11.0002Z" fill="black"/>
</g>
<defs>
<clipPath id="clip0_86_5666">
<rect width="10.3742" height="10.3742" fill="white" transform="scale(1.06034)"/>
</clipPath>
</defs>
</svg>
