<svg width="14" height="14" viewBox="0 0 14 14" fill="none" xmlns="http://www.w3.org/2000/svg">
<g clip-path="url(#clip0_75_245)">
<path d="M8.31234 0.105L8.83734 0.221667L9.26318 0.373333L9.60734 0.548333L9.86984 0.735L10.0682 0.933333L10.214 1.13167L10.3073 1.32417L10.3657 1.49917L10.389 1.65083L10.4007 1.7675L10.3948 1.84333V4.95833L10.3657 5.32583L10.2898 5.64667L10.1673 5.915L10.0157 6.13667L9.84068 6.3175L9.64818 6.46333L9.44401 6.57417L9.23984 6.65583L9.04735 6.71417L8.87234 6.755L8.72068 6.77833L8.59818 6.79H5.11568L4.71318 6.81917L4.36901 6.90083L4.07734 7.02917L3.83818 7.18667L3.64568 7.37333L3.48818 7.5775L3.37151 7.7875L3.28401 8.00333L3.22568 8.2075L3.18484 8.39417L3.16151 8.55167L3.14984 8.67417V10.4592H1.84901L1.72651 10.4417L1.56318 10.4008L1.37651 10.3308L1.17234 10.2258L0.962344 10.0742L0.752344 9.86417L0.548177 9.59583L0.36151 9.25167L0.198177 8.82583L0.0756771 8.3125L-0.00598958 7.7L-0.0351562 6.9825L-0.00015625 6.27083L0.0931771 5.66417L0.233177 5.15667L0.419844 4.7425L0.629844 4.41L0.863177 4.15333L1.10818 3.96083L1.35318 3.82083L1.58651 3.7275L1.79651 3.66917L1.98318 3.64L2.12318 3.63417H2.21651L2.25151 3.64H7.01151V3.15583H3.60484L3.59901 1.55167L3.58734 1.33583L3.61651 1.1375L3.68068 0.956667L3.77984 0.793333L3.92568 0.641667L4.10651 0.5075L4.32818 0.390833L4.58484 0.285833L4.88234 0.198333L5.22068 0.128333L5.59401 0.07L6.00818 0.035L6.45734 0.0116667L6.94734 0L7.68818 0.0291667L8.31234 0.105ZM4.63734 1.26L4.50318 1.4525L4.45651 1.69167L4.50318 1.93083L4.63734 2.12917L4.82984 2.2575L5.06901 2.31L5.30818 2.2575L5.50068 2.12917L5.63484 1.93083L5.68151 1.69167L5.63484 1.4525L5.50068 1.26L5.30818 1.13167L5.06901 1.07917L4.82984 1.13167L4.63734 1.26ZM12.2732 3.56417L12.4365 3.59917L12.6232 3.66917L12.8273 3.77417L13.0373 3.93167L13.2473 4.13583L13.4515 4.41L13.6382 4.75417L13.8015 5.18L13.924 5.69333L14.0057 6.3L14.0348 7.0175L13.9998 7.735L13.9065 8.34167L13.7665 8.84333L13.5798 9.2575L13.3698 9.59L13.1365 9.8525L12.8915 10.045L12.6465 10.185L12.4132 10.2783L12.2032 10.3308L12.0165 10.36L11.8765 10.3717L11.7832 10.3658H6.98818V10.8442H10.3948L10.4007 12.4542L10.4123 12.6642L10.3832 12.8625L10.319 13.0433L10.2198 13.2125L10.074 13.3583L9.89318 13.4983L9.67151 13.615L9.41484 13.7142L9.11734 13.8017L8.77901 13.8775L8.40568 13.93L7.99151 13.9708L7.54234 13.9942L7.05234 14L6.31151 13.9767L5.68734 13.895L5.16234 13.7783L4.73651 13.6325L4.39234 13.4575L4.12984 13.265L3.93151 13.0667L3.78568 12.8683L3.69234 12.6758L3.63401 12.5008L3.61068 12.355L3.59901 12.2383L3.60484 12.1625V9.0475L3.63401 8.67417L3.70984 8.35917L3.83234 8.09083L3.98401 7.86917L4.15901 7.6825L4.35151 7.5425L4.55568 7.42583L4.75984 7.34417L4.95234 7.28583L5.12734 7.25083L5.27901 7.2275L5.40151 7.21583L5.47734 7.21H8.88401L9.28651 7.18083L9.63068 7.09917L9.92234 6.97667L10.1615 6.81333L10.354 6.62667L10.5115 6.4225L10.6282 6.2125L10.7157 6.0025L10.774 5.79833L10.8148 5.61167L10.8382 5.44833L10.8498 5.32583V3.54083H12.069L12.1507 3.54667L12.2732 3.56417ZM8.49901 11.8767L8.36484 12.0692L8.31818 12.3083L8.36484 12.5475L8.49901 12.74L8.69151 12.8742L8.93068 12.9208L9.16984 12.8742L9.36234 12.74L9.49651 12.5475L9.54318 12.3083L9.49651 12.0692L9.36234 11.8767L9.16984 11.7425L8.93068 11.6958L8.69151 11.7425L8.49901 11.8767Z" fill="#3776AB"/>
</g>
<defs>
<clipPath id="clip0_75_245">
<rect width="14" height="14" fill="white"/>
</clipPath>
</defs>
</svg>
