<svg width="17" height="17" viewBox="0 0 17 17" fill="none" xmlns="http://www.w3.org/2000/svg">
<g clip-path="url(#clip0_82_5085)">
<path d="M16.0554 7.55556C16.0554 11.7272 12.6715 15.1111 8.49989 15.1111C4.32734 15.1111 0.944336 11.7272 0.944336 7.55556C0.944336 3.383 4.32734 0 8.49989 0C12.6715 0 16.0554 3.383 16.0554 7.55556Z" fill="#FFCC4D"/>
<path d="M12.2121 7.61647C12.1967 7.5986 12.1778 7.58403 12.1566 7.57363C12.1354 7.56322 12.1123 7.5572 12.0887 7.55592C12.0652 7.55464 12.0416 7.55813 12.0194 7.56618C11.9971 7.57424 11.9768 7.58668 11.9595 7.60278C11.9439 7.61647 10.3998 8.97222 8.50001 8.97222C6.60498 8.97222 5.05609 7.61647 5.04051 7.60278C5.02316 7.5868 5.0028 7.57446 4.9806 7.56649C4.95841 7.55851 4.93485 7.55506 4.9113 7.55633C4.88775 7.55761 4.8647 7.56359 4.8435 7.57392C4.8223 7.58425 4.80339 7.59872 4.78787 7.61647C4.75304 7.65669 4.73091 7.70632 4.72427 7.7591C4.71763 7.81188 4.72678 7.86544 4.75057 7.91303C4.80157 8.01456 6.02982 10.3889 8.50001 10.3889C10.9702 10.3889 12.1989 8.01456 12.2495 7.91303C12.2732 7.86544 12.2824 7.81188 12.2757 7.7591C12.2691 7.70632 12.247 7.65669 12.2121 7.61647Z" fill="#664500"/>
<path d="M6.32427 10.9337L5.59752 9.88581C5.59752 9.88581 5.34111 9.47639 4.93122 9.73233C4.5218 9.98781 4.77822 10.3977 4.77822 10.3977L5.60839 11.9938C5.60839 11.9938 5.67638 12.3565 5.17488 11.9508C4.95625 11.7742 5.08186 11.8739 5.08186 11.8739L4.87408 11.7034L2.28111 9.57461C2.28111 9.57461 1.9463 9.22139 1.63936 9.59445C1.33336 9.96797 1.74466 10.2277 1.74466 10.2277L4.19691 12.2422C4.14025 12.2989 3.9693 12.4944 3.91358 12.5553L1.28944 10.4019C1.28944 10.4019 0.954163 10.0483 0.648163 10.4213C0.341219 10.7948 0.752997 11.0546 0.752997 11.0546L3.37619 13.2088C3.32755 13.2749 3.20477 13.4336 3.15944 13.4988L0.896552 11.6411C0.896552 11.6411 0.561274 11.2878 0.255274 11.6609C-0.0521423 12.0344 0.360108 12.2946 0.360108 12.2946L2.76561 14.2704C2.73539 14.3544 2.59419 14.5754 2.572 14.6576L0.837997 13.2353C0.837997 13.2353 0.503191 12.8802 0.197191 13.2546C-0.109753 13.6282 0.302024 13.8879 0.302024 13.8879L3.1023 16.1867L3.28883 16.3406C3.85681 16.8065 4.58045 17.0394 5.31354 16.9923C6.04662 16.9451 6.7345 16.6215 7.23817 16.0868C7.74185 15.5521 8.02378 14.8461 8.02699 14.1115C8.03021 13.3769 7.75447 12.6685 7.2555 12.1293C6.91125 11.7601 6.61327 11.3488 6.32427 10.9337ZM16.8029 13.2551C16.4969 12.8806 16.1621 13.2358 16.1621 13.2358L14.4281 14.6581C14.4059 14.5759 14.2647 14.3544 14.2345 14.2709L16.64 12.2951C16.64 12.2951 17.0522 12.0349 16.7453 11.6614C16.4393 11.2883 16.104 11.6415 16.104 11.6415L13.8411 13.4993C13.7958 13.4336 13.6725 13.2749 13.6244 13.2093L16.2476 11.055C16.2476 11.055 16.6598 10.7953 16.3529 10.4218C16.0469 10.0487 15.7121 10.4024 15.7121 10.4024L13.0874 12.5558C13.0322 12.4948 12.8612 12.2993 12.8041 12.2427L15.2564 10.2282C15.2564 10.2282 15.6672 9.96845 15.3617 9.59492C15.0547 9.22186 14.7199 9.57508 14.7199 9.57508L12.1269 11.7039L11.9196 11.8743C11.9196 11.8743 12.3871 11.4772 11.8266 11.9513C11.2656 12.4254 11.3931 11.9943 11.3931 11.9943L12.2233 10.3982C12.2233 10.3982 12.4797 9.98828 12.0703 9.73281C11.6599 9.47686 11.404 9.88628 11.404 9.88628L10.6777 10.9341C10.3882 11.3492 10.0902 11.7605 9.74552 12.1303C9.24586 12.6693 8.96956 13.378 8.97252 14.113C8.97548 14.848 9.25748 15.5545 9.76147 16.0895C10.2655 16.6245 10.9538 16.9481 11.6873 16.9949C12.4209 17.0417 13.1448 16.8082 13.7127 16.3416L13.8997 16.1876L16.6999 13.8888C16.6976 13.8884 17.1094 13.6286 16.8029 13.2551Z" fill="#F4900C"/>
<path d="M13.0697 5.18647C13.0457 5.12886 12.4629 3.77783 11.2654 3.77783C10.0688 3.77783 9.48604 5.12886 9.46196 5.18647C9.44369 5.22939 9.43947 5.27699 9.4499 5.32246C9.46033 5.36792 9.48489 5.40892 9.52004 5.43958C9.55426 5.46881 9.59752 5.48533 9.64252 5.48637C9.68751 5.4874 9.73148 5.47288 9.76701 5.44525C9.77173 5.441 10.2775 5.05992 11.2654 5.05992C12.2471 5.05992 12.7524 5.43628 12.7642 5.44525C12.7995 5.47305 12.8434 5.48778 12.8883 5.48692C12.9332 5.48606 12.9765 5.46966 13.0107 5.44053C13.0462 5.40992 13.0711 5.36881 13.0817 5.32314C13.0923 5.27746 13.0881 5.2296 13.0697 5.18647ZM7.87529 5.18647C7.85073 5.12886 7.26848 3.77783 6.07093 3.77783C4.87432 3.77783 4.2916 5.12886 4.26704 5.18647C4.24883 5.22944 4.24468 5.27707 4.2552 5.32254C4.26572 5.36801 4.29036 5.40898 4.3256 5.43958C4.39643 5.50003 4.49843 5.50192 4.57257 5.44525C4.57776 5.441 5.08304 5.05992 6.07093 5.05992C7.05315 5.05992 7.55796 5.43628 7.56929 5.44525C7.6036 5.47232 7.646 5.48712 7.68971 5.48728C7.73592 5.48697 7.78055 5.47042 7.81579 5.44053C7.85133 5.40993 7.87623 5.36885 7.88693 5.32319C7.89762 5.27754 7.89354 5.22966 7.87529 5.18647Z" fill="#664500"/>
<path d="M5.28017 12.0312C5.28017 12.0312 4.0557 13.5962 5.50873 15.554C5.60884 15.6886 5.8629 15.623 5.75476 15.4652C5.6367 15.2934 4.45615 13.6255 5.56587 12.1328C5.56587 12.1328 5.38595 12.1106 5.28017 12.0312ZM11.6944 12.0775C11.6944 12.0775 12.9193 13.6425 11.4658 15.6003C11.3657 15.7349 11.1116 15.6692 11.2198 15.5115C11.3378 15.3396 12.5184 13.6717 11.4087 12.1791C11.4082 12.1795 11.5886 12.1573 11.6944 12.0775Z" fill="#B55005"/>
</g>
<defs>
<clipPath id="clip0_82_5085">
<rect width="17" height="17" fill="white"/>
</clipPath>
</defs>
</svg>
