<svg width="17" height="17" viewBox="0 0 17 17" fill="none" xmlns="http://www.w3.org/2000/svg">
<g clip-path="url(#clip0_80_4214)">
<path d="M15.3636 9.20216L13.2929 8.01481L12.9358 7.86035L4.46484 7.91826V12.2189H15.3636V9.20216Z" fill="white"/>
<path d="M11.5939 11.8234C11.6952 11.4758 11.6566 11.1573 11.4876 10.9208C11.3332 10.7037 11.0726 10.5781 10.7587 10.5637L4.81711 10.4865C4.77846 10.4865 4.74473 10.4672 4.72534 10.4383C4.70595 10.4093 4.70116 10.3707 4.71086 10.332C4.73012 10.2741 4.78802 10.2307 4.85084 10.2258L10.8456 10.1486C11.5551 10.1149 12.3274 9.54048 12.5977 8.83578L12.9403 7.94288C12.9548 7.90423 12.9596 7.86572 12.95 7.82707C12.5641 6.07952 11.0051 4.77637 9.14202 4.77637C7.42369 4.77637 5.96607 5.88655 5.44478 7.42624C5.09136 7.16305 4.65259 7.04089 4.21401 7.08359C3.38858 7.16566 2.72744 7.82694 2.64536 8.65223C2.6261 8.8646 2.64058 9.07219 2.68879 9.26516C1.34194 9.30381 0.265625 10.4043 0.265625 11.7606C0.265625 11.8813 0.27532 12.0019 0.289797 12.1226C0.293951 12.1505 0.307878 12.176 0.329092 12.1946C0.350305 12.2131 0.377425 12.2235 0.405609 12.224H11.3719C11.4346 12.224 11.4927 12.1805 11.5119 12.1177L11.5939 11.8234Z" fill="#F38020"/>
<path d="M13.4862 8.00537C13.4331 8.00537 13.3752 8.00537 13.322 8.01015C13.2834 8.01015 13.2496 8.03911 13.2352 8.07775L13.0035 8.88379C12.9022 9.23136 12.9409 9.54985 13.1098 9.78639C13.2643 10.0035 13.5248 10.129 13.8387 10.1435L15.1033 10.2207C15.142 10.2207 15.1757 10.2399 15.1951 10.2689C15.2143 10.2978 15.2193 10.3413 15.2096 10.3751C15.1903 10.4331 15.1324 10.4765 15.0696 10.4814L13.7515 10.5587C13.0371 10.5924 12.2698 11.1668 11.9995 11.8715L11.9029 12.1176C11.8837 12.1659 11.9174 12.2142 11.9705 12.2142H16.498C16.5511 12.2142 16.5993 12.1805 16.6138 12.1273C16.691 11.8474 16.7345 11.5529 16.7345 11.2489C16.7345 9.46299 15.2769 8.00537 13.4862 8.00537Z" fill="#FAAE40"/>
</g>
<defs>
<clipPath id="clip0_80_4214">
<rect width="17" height="17" fill="white"/>
</clipPath>
</defs>
</svg>
