<svg width="14" height="14" viewBox="0 0 14 14" fill="none" xmlns="http://www.w3.org/2000/svg">
<path d="M2.28381 10.1141L3.87937 7.22966C3.92855 7.1435 3.96011 7.04843 3.97224 6.94996C3.98437 6.8515 3.97682 6.75161 3.95002 6.65609C3.92323 6.56058 3.87773 6.47133 3.81616 6.39354C3.75459 6.31576 3.67818 6.25097 3.59136 6.20296C3.50455 6.15495 3.40906 6.12466 3.31045 6.11385C3.21183 6.10304 3.11205 6.11194 3.0169 6.14001C2.92175 6.16809 2.83313 6.21478 2.75617 6.27739C2.67922 6.34 2.61547 6.41727 2.56862 6.50472L0.973059 9.38872C0.876869 9.56254 0.853666 9.76745 0.908556 9.95837C0.963445 10.1493 1.09193 10.3106 1.26575 10.4068C1.43956 10.503 1.64447 10.5262 1.8354 10.4713C2.02632 10.4164 2.18762 10.2879 2.28381 10.1141ZM7.54256 10.1141L9.13856 7.22966C9.18773 7.1435 9.2193 7.04843 9.23143 6.94996C9.24356 6.8515 9.23601 6.75161 9.20921 6.65609C9.18242 6.56058 9.13691 6.47133 9.07534 6.39354C9.01377 6.31576 8.93736 6.25097 8.85055 6.20296C8.76374 6.15495 8.66825 6.12466 8.56964 6.11385C8.47102 6.10304 8.37124 6.11194 8.27609 6.14001C8.18094 6.16809 8.09231 6.21478 8.01536 6.27739C7.9384 6.34 7.87465 6.41727 7.82781 6.50472L6.23181 9.38872C6.13562 9.56254 6.11242 9.76745 6.16731 9.95837C6.2222 10.1493 6.35068 10.3106 6.5245 10.4068C6.69831 10.503 6.90322 10.5262 7.09415 10.4713C7.28507 10.4164 7.44637 10.2879 7.54256 10.1141ZM6.06468 7.5066L7.76218 4.62435C7.85759 4.45404 7.88248 4.25314 7.83151 4.0647C7.78055 3.87626 7.65779 3.71529 7.48955 3.61629C7.32131 3.51729 7.12098 3.48814 6.9315 3.5351C6.74202 3.58205 6.57848 3.70137 6.47593 3.86747L4.77843 6.74972C4.68303 6.92003 4.65814 7.12093 4.7091 7.30937C4.76007 7.4978 4.88283 7.65878 5.05107 7.75778C5.21931 7.85677 5.41964 7.88592 5.60912 7.83897C5.7986 7.79202 5.96214 7.6727 6.06468 7.5066ZM11.3269 7.5066L13.0244 4.62435C13.1198 4.45404 13.1447 4.25314 13.0938 4.0647C13.0428 3.87626 12.92 3.71529 12.7518 3.61629C12.5836 3.51729 12.3832 3.48814 12.1937 3.5351C12.0043 3.58205 11.8407 3.70137 11.7382 3.86747L10.0407 6.74972C9.94528 6.92003 9.92039 7.12093 9.97135 7.30937C10.0223 7.4978 10.1451 7.65878 10.3133 7.75778C10.4816 7.85677 10.6819 7.88592 10.8714 7.83897C11.0608 7.79202 11.2244 7.6727 11.3269 7.5066Z" fill="#4CAF50"/>
</svg>
