<svg width="17" height="17" viewBox="0 0 17 17" fill="none" xmlns="http://www.w3.org/2000/svg">
<path d="M6.375 6.375V4.39181C6.375 3.5984 6.375 3.2014 6.52941 2.89836C6.66523 2.63179 6.88179 2.41523 7.14836 2.27941C7.45138 2.125 7.8484 2.125 8.64181 2.125H12.6085C13.4019 2.125 13.7984 2.125 14.1014 2.27941C14.368 2.41523 14.5849 2.63179 14.7207 2.89836C14.8751 3.2014 14.8751 3.5981 14.8751 4.39151V8.35819C14.8751 9.1516 14.8751 9.54833 14.7207 9.85136C14.5849 10.1179 14.3678 10.3349 14.1012 10.4707C13.7985 10.625 13.4024 10.625 12.6105 10.625H10.625M6.375 6.375H4.39181C3.5984 6.375 3.2014 6.375 2.89836 6.52941C2.63179 6.66523 2.41523 6.88179 2.27941 7.14836C2.125 7.45138 2.125 7.8484 2.125 8.64181V12.6085C2.125 13.4019 2.125 13.7984 2.27941 14.1014C2.41523 14.368 2.63179 14.5849 2.89836 14.7207C3.2011 14.875 3.59762 14.875 4.38948 14.875H8.36088C9.15273 14.875 9.54869 14.875 9.85143 14.7207C10.118 14.5849 10.3349 14.3678 10.4707 14.1012C10.625 13.7985 10.625 13.4024 10.625 12.6105V10.625M6.375 6.375H8.35848C9.15188 6.375 9.5484 6.375 9.85143 6.52941C10.118 6.66523 10.3349 6.88179 10.4707 7.14836C10.625 7.4511 10.625 7.84763 10.625 8.63947V10.625" stroke="#9E9E9E" stroke-linecap="round" stroke-linejoin="round"/>
</svg>
