<svg width="14" height="14" viewBox="0 0 14 14" fill="none" xmlns="http://www.w3.org/2000/svg">
<g clip-path="url(#clip0_75_247)">
<path d="M5.08493 10.8237C5.08493 10.8237 4.5468 11.151 5.45899 11.2446C6.55711 11.3846 7.14205 11.3614 8.35743 11.1278C8.60169 11.2774 8.86003 11.4027 9.12874 11.5019C6.39436 12.6709 2.93418 11.4319 5.08493 10.8237ZM4.73493 9.30429C4.73493 9.30429 4.15043 9.74835 5.06218 9.84242C6.25436 9.95923 7.1893 9.98242 8.8028 9.6556C8.95972 9.81475 9.15184 9.93479 9.36368 10.006C6.06755 10.9878 2.37418 10.0992 4.73493 9.30429ZM11.1867 11.9687C11.1867 11.9687 11.584 12.2959 10.7427 12.5532C9.17643 13.0213 4.17405 13.1613 2.77143 12.5532C2.28055 12.3432 3.21549 12.0391 3.51518 11.9923C3.81924 11.9223 3.9833 11.9223 3.9833 11.9223C3.44518 11.5482 0.406738 12.6936 2.44068 13.0204C8.02755 13.9322 12.6327 12.6232 11.1832 11.9687H11.1867ZM5.3378 7.71442C5.3378 7.71442 2.7898 8.32254 4.42605 8.53254C5.12736 8.62617 6.50636 8.60254 7.79217 8.50935C8.84393 8.41573 9.89655 8.22935 9.89655 8.22935C9.89655 8.22935 9.52249 8.39298 9.26524 8.5566C6.67086 9.23473 1.69124 8.93067 3.11749 8.22935C4.33286 7.64485 5.33824 7.71529 5.33824 7.71529L5.3378 7.71442ZM9.89655 10.2624C12.5146 8.90617 11.2992 7.59804 10.4574 7.76123C10.2474 7.80804 10.1534 7.85485 10.1534 7.85485C10.1534 7.85485 10.2234 7.71485 10.387 7.66804C12.0469 7.08354 13.3559 9.4211 9.84886 10.3324C9.84886 10.3324 9.87205 10.3092 9.89568 10.2624H9.89655ZM5.59593 13.9558C8.1203 14.1194 11.9777 13.8622 12.0709 12.6695C12.0709 12.6695 11.8841 13.1377 9.99061 13.4877C7.83986 13.8849 5.17505 13.8377 3.6088 13.5813C3.6088 13.5813 3.93605 13.8617 5.59593 13.9558Z" fill="#4E7896"/>
<path d="M8.31079 0.00052407C8.31079 0.00052407 9.76023 1.47315 6.93179 3.6939C4.66423 5.49377 6.41773 6.52234 6.93179 7.69134C5.59916 6.49915 4.64104 5.44696 5.29554 4.46565C6.25366 3.01577 8.89529 2.31884 8.31079 0.00052407ZM7.56704 6.70959C8.24516 7.4809 7.38023 8.18221 7.38023 8.18221C7.38023 8.18221 9.1101 7.29409 8.31516 6.19509C7.59066 5.14334 7.02891 4.62884 10.0682 2.87577C10.0682 2.87577 5.27629 4.06796 7.56704 6.70959Z" fill="#F58219"/>
</g>
<defs>
<clipPath id="clip0_75_247">
<rect width="13.0439" height="13.0439" fill="white" transform="scale(1.07329)"/>
</clipPath>
</defs>
</svg>
