<svg width="15" height="15" viewBox="0 0 15 15" fill="none" xmlns="http://www.w3.org/2000/svg">
<g clip-path="url(#clip0_82_4985)">
<path d="M13.2559 3.05439C10.801 -0.124677 6.23336 -0.711552 3.05418 1.74388C-0.12453 4.19931 -0.710819 8.76692 1.74461 11.9456C4.20051 15.1242 8.76848 15.7102 11.9467 13.2543C15.1241 10.7988 15.7105 6.23263 13.2559 3.05439Z" fill="#F37036"/>
<path d="M10.6734 2.83162C10.4231 2.85163 10.1856 2.95125 9.99597 3.11592C9.77394 3.30867 9.63224 3.57766 9.59883 3.86978C9.56542 4.1619 9.64273 4.45594 9.81551 4.69385C9.98804 4.93186 10.2435 5.09657 10.5315 5.15547C10.8195 5.21437 11.1192 5.16318 11.3713 5.01201H11.3715L11.3898 5.03029C11.4728 4.98269 11.5501 4.92567 11.6201 4.86037C11.8359 4.63207 11.9546 4.32888 11.9512 4.01474C11.9478 3.7006 11.8225 3.40006 11.6018 3.1765V3.17627L10.5654 4.20623L10.5471 4.18807L11.5835 3.15764C11.4635 3.04197 11.3204 2.95311 11.1635 2.89695C11.0066 2.84078 10.8396 2.8186 10.6734 2.83185V2.83162ZM9.3089 4.5176C8.81203 4.51678 8.00074 5.07998 6.0198 7.06092L6.02965 7.07099C6.01886 7.06725 6.00797 7.06689 6.00797 7.06689L5.26218 7.80611C5.24303 7.82433 5.23036 7.8483 5.22608 7.87439C5.22181 7.90047 5.22617 7.92724 5.23851 7.95061C5.25085 7.97399 5.27048 7.99269 5.29443 8.00388C5.31838 8.01507 5.34532 8.01813 5.37117 8.0126L6.65015 7.73978C6.6558 7.73448 6.65958 7.72749 6.66093 7.71986L6.68929 7.74916L6.25336 8.18158H6.23226L3.64406 10.7902L4.47445 11.5899C4.49767 11.6108 4.52697 11.6238 4.55808 11.6269C4.58918 11.6301 4.62048 11.6232 4.64742 11.6073C4.67459 11.5916 4.69636 11.568 4.70985 11.5396C4.72334 11.5112 4.72793 11.4794 4.723 11.4484L4.60172 10.9211C4.59415 10.9105 4.59009 10.8978 4.59009 10.8847C4.59009 10.8717 4.59415 10.859 4.60172 10.8484C5.7354 10.308 6.78967 9.61468 7.73507 8.78791L7.20363 8.25623L7.21371 8.25459L6.89847 7.93947L6.91863 7.91908L6.93996 7.94088L6.92894 7.95154L7.76531 8.80619V8.80584C9.36843 7.28779 10.5063 6.06752 10.2104 5.24627C10.1969 5.14806 10.1513 5.05708 10.0807 4.98752V4.98799C10.0628 4.97462 10.0438 4.96263 10.0241 4.95213C10.0144 4.94182 10.0058 4.93127 9.9955 4.92119L9.98777 4.92892C9.96605 4.91566 9.94324 4.90429 9.91957 4.89494L9.95343 4.86072C9.74297 4.67322 9.56906 4.51807 9.3089 4.51736V4.5176ZM3.62601 10.8058L3.02004 11.4119V11.4123C2.99829 11.4258 2.98139 11.4458 2.97177 11.4695C2.96214 11.4932 2.96029 11.5193 2.96648 11.5442C2.97246 11.569 2.98611 11.5913 3.00549 11.6079C3.02486 11.6245 3.04898 11.6345 3.07441 11.6366L4.55941 11.7392L3.62601 10.8058Z" fill="white"/>
<path d="M10.7752 2.73145C10.4351 2.73102 10.1085 2.86447 9.86595 3.10293C9.69338 3.27953 9.57523 3.50202 9.52557 3.74389C9.47591 3.98576 9.49684 4.2368 9.58587 4.46711C9.03028 4.22922 8.27864 4.64406 5.94063 6.9816C5.93899 6.98519 5.93754 6.98887 5.9363 6.99262C5.93152 6.99479 5.92687 6.99721 5.92235 6.99988L5.18302 7.74567C5.14758 7.78045 5.1243 7.82573 5.11664 7.87479C5.10898 7.92385 5.11734 7.97408 5.14048 8.01801C5.16113 8.05277 5.19038 8.08163 5.22541 8.10183C5.26045 8.12202 5.30008 8.13287 5.34052 8.13332L5.3772 8.10953L6.36438 7.89895L5.89212 8.37555C5.88936 8.3818 5.88724 8.38832 5.88579 8.395L3.57134 10.7152C3.56211 10.723 3.55447 10.7324 3.54884 10.7431L2.95282 11.3396C2.92312 11.3709 2.90282 11.41 2.89424 11.4523C2.88566 11.4947 2.88915 11.5385 2.9043 11.579C2.91985 11.6192 2.9462 11.6543 2.98044 11.6805C3.01469 11.7066 3.0555 11.7228 3.09837 11.7272L4.57704 11.8304C4.60226 11.8215 4.62374 11.8043 4.63798 11.7817C4.65069 11.7641 4.65753 11.7428 4.65753 11.7211C4.65753 11.6993 4.65069 11.6781 4.63798 11.6604L4.63493 11.6575C4.66684 11.6407 4.69496 11.6176 4.71755 11.5895C4.74129 11.5587 4.75788 11.523 4.76611 11.485C4.77434 11.4469 4.77401 11.4076 4.76513 11.3697L4.64981 10.879C5.75611 10.3503 6.79267 9.68663 7.73583 8.90313C7.74498 8.90833 7.75474 8.91239 7.76489 8.9152C7.79466 8.91297 7.82255 8.9002 7.84364 8.8791C9.43153 7.37559 10.3649 6.34527 10.3649 5.52731C10.3684 5.41384 10.3513 5.30069 10.3144 5.19332C10.4575 5.25266 10.6102 5.28561 10.765 5.29059L10.7632 5.29106C10.9765 5.28454 11.185 5.22622 11.3706 5.12113C11.3708 5.12117 11.3709 5.12121 11.3711 5.12125C11.3951 5.12845 11.421 5.12615 11.4434 5.11481C11.533 5.06205 11.6147 4.99687 11.686 4.92121C11.8068 4.80264 11.9028 4.66117 11.9684 4.50507C12.0339 4.34897 12.0677 4.18138 12.0678 4.01207C12.0677 3.84278 12.034 3.67518 11.9684 3.51909C11.9029 3.36299 11.8069 3.22151 11.6861 3.10293C11.6818 3.09901 11.6772 3.09545 11.6723 3.09227C11.431 2.86064 11.1095 2.73137 10.7751 2.73156L10.7752 2.73145ZM10.765 2.9391C11.0018 2.94052 11.2317 3.01928 11.4196 3.1634L10.4741 4.11461C10.4709 4.11821 10.4679 4.12205 10.4652 4.12609C10.4482 4.14334 10.4382 4.16632 10.4372 4.19055C10.4372 4.20518 10.4405 4.21963 10.4469 4.23282C10.4532 4.246 10.4625 4.25759 10.4739 4.26672H10.4741L11.189 4.98156C10.9933 5.06689 10.7764 5.09114 10.5668 5.05114C10.3571 5.01114 10.1644 4.90875 10.0138 4.75738C9.71079 4.4527 9.6229 3.9952 9.78497 3.59828C9.94704 3.20102 10.3334 2.94145 10.765 2.9391ZM11.5994 3.34129C11.754 3.52833 11.8383 3.76356 11.8376 4.00621C11.8372 4.29048 11.7239 4.56295 11.5226 4.76371C11.4823 4.80167 11.4393 4.83672 11.394 4.86859L10.817 4.30059L10.7042 4.18774L10.7352 4.15668L11.5993 3.34106L11.5994 3.34129ZM11.5565 3.83266C11.5353 3.82596 11.5124 3.82725 11.492 3.83629C11.4719 3.8467 11.4568 3.86465 11.4499 3.88621C11.4465 3.89698 11.4452 3.90831 11.4462 3.91955C11.4472 3.93079 11.4505 3.94173 11.4557 3.95172C11.4765 3.9955 11.4848 4.04422 11.4794 4.09241C11.4741 4.1406 11.4555 4.18635 11.4256 4.22453C11.418 4.2319 11.412 4.24081 11.408 4.25067C11.4041 4.26053 11.4023 4.27111 11.4027 4.28172C11.4032 4.30328 11.4109 4.32391 11.4256 4.33938C11.4412 4.34534 11.4585 4.34534 11.4741 4.33938C11.4882 4.34289 11.503 4.34249 11.5169 4.33822C11.5307 4.33394 11.5432 4.32595 11.5529 4.31512C11.6027 4.25397 11.6343 4.17998 11.6439 4.10167C11.6536 4.02336 11.6409 3.94392 11.6074 3.8725V3.87297C11.5959 3.85374 11.5778 3.83939 11.5565 3.83266ZM9.29747 4.62051C9.4389 4.6252 9.575 4.67561 9.68536 4.76418C9.56645 4.78129 9.45624 4.83637 9.37118 4.92121L6.69848 7.58195L6.17395 7.05742C7.56005 5.67789 8.40755 4.95731 8.93442 4.72117C9.04294 4.65271 9.16919 4.61778 9.29747 4.62051ZM9.76212 4.96738C9.85186 4.96739 9.93795 5.00295 10.0015 5.06629C10.0354 5.09802 10.0621 5.1366 10.0798 5.17946C10.0976 5.22232 10.106 5.26847 10.1045 5.31484C10.103 5.36104 10.092 5.40643 10.0721 5.44816C10.0522 5.4899 10.024 5.5271 9.98911 5.55742L7.14731 8.03078L6.84063 7.7241L9.5227 5.06629C9.5863 5.003 9.67239 4.96736 9.76212 4.96738ZM10.113 5.75231C9.91493 6.5377 8.86528 7.60188 7.77075 8.63594L7.32813 8.19379L10.113 5.75231ZM6.01938 7.21235L6.05149 7.24399L6.46317 7.65567L5.33466 7.89707L6.01938 7.21235ZM6.69825 7.89672L6.69872 7.89719L6.83559 8.03723C6.83617 8.04054 6.83687 8.04382 6.8377 8.04707L6.84684 8.04848L6.87591 8.07824L6.972 8.17668L6.34095 8.25402L6.69837 7.8966L6.69825 7.89672ZM7.15141 8.37438L7.57071 8.79344C6.64356 9.56441 5.62614 10.2198 4.54083 10.7453C4.50559 10.7621 4.47726 10.7906 4.46066 10.8259C4.44406 10.8612 4.44021 10.9012 4.44977 10.939L4.57106 11.4664C4.57553 11.4726 4.57794 11.48 4.57794 11.4876C4.57794 11.4953 4.57553 11.5027 4.57106 11.5089C4.5644 11.5149 4.55576 11.5182 4.5468 11.5182C4.53785 11.5182 4.52921 11.5149 4.52255 11.5089L3.80747 10.788L6.01153 8.55156L7.15141 8.37438ZM3.64364 10.9455L3.74548 11.0409L4.27188 11.5673L3.09813 11.4913L3.64364 10.9455Z" fill="#F37036"/>
</g>
<defs>
<clipPath id="clip0_82_4985">
<rect width="15" height="15" fill="white"/>
</clipPath>
</defs>
</svg>
