<svg width="14" height="14" viewBox="0 0 14 14" fill="none" xmlns="http://www.w3.org/2000/svg">
<g clip-path="url(#clip0_74_211)">
<path d="M7 0.17334C3.1325 0.17334 0 3.30759 0 7.17334C0 10.2668 2.0055 12.89 4.78625 13.8146C5.13625 13.8805 5.26458 13.6641 5.26458 13.478C5.26458 13.3118 5.25875 12.8713 5.25583 12.288C3.30867 12.7103 2.898 11.3488 2.898 11.3488C2.5795 10.5409 2.11925 10.3251 2.11925 10.3251C1.48517 9.89109 2.16825 9.89984 2.16825 9.89984C2.87117 9.94884 3.24042 10.6208 3.24042 10.6208C3.86458 11.6913 4.879 11.3821 5.27917 11.203C5.34217 10.7503 5.52242 10.4418 5.7225 10.2668C4.16792 10.0918 2.534 9.48976 2.534 6.80759C2.534 6.04342 2.80525 5.41926 3.25442 4.92926C3.17567 4.75251 2.93942 4.04084 3.31567 3.07659C3.31567 3.07659 3.90192 2.88876 5.24067 3.79409C5.80067 3.63834 6.39567 3.56134 6.99067 3.55784C7.58567 3.56134 8.18067 3.63834 8.74067 3.79409C10.0707 2.88876 10.6569 3.07659 10.6569 3.07659C11.0332 4.04084 10.7969 4.75251 10.7269 4.92926C11.1732 5.41926 11.4444 6.04342 11.4444 6.80759C11.4444 9.49676 9.80817 10.0888 8.25067 10.2609C8.49567 10.4709 8.72317 10.9003 8.72317 11.5559C8.72317 12.4928 8.71442 13.2453 8.71442 13.4728C8.71442 13.6565 8.83692 13.8753 9.19567 13.8053C11.9962 12.8871 14 10.2621 14 7.17334C14 3.30759 10.8657 0.17334 7 0.17334Z" fill="#181717"/>
</g>
<defs>
<clipPath id="clip0_74_211">
<rect width="14" height="14" fill="white"/>
</clipPath>
</defs>
</svg>
