<svg width="14" height="14" viewBox="0 0 14 14" fill="none" xmlns="http://www.w3.org/2000/svg">
<g clip-path="url(#clip0_80_560)">
<path d="M13.8544 10.7671C13.3557 10.8939 13.0472 10.7725 12.7705 10.3569C12.1493 9.42613 11.4635 8.53801 10.8018 7.63347C10.7165 7.51644 10.6279 7.4016 10.5174 7.25613C9.73428 8.31269 8.95225 9.31894 8.21834 10.3657C7.95584 10.7397 7.68021 10.9027 7.19021 10.7703L10.1346 6.81863L7.39365 3.24972C7.86506 3.15785 8.191 3.20488 8.47975 3.62707C9.1174 4.55894 9.82068 5.44597 10.5218 6.38441C11.2272 5.44926 11.9218 4.56113 12.578 3.63801C12.8416 3.26394 13.1249 3.12176 13.5985 3.25957C13.2397 3.73535 12.8887 4.20347 12.5354 4.66832C12.0585 5.29504 11.5904 5.92941 11.096 6.54301C10.9199 6.76176 10.9483 6.90394 11.1058 7.11066C12.0202 8.31269 12.9237 9.52676 13.8544 10.7671ZM0.145371 6.75301C0.224121 6.35816 0.276621 5.95566 0.385996 5.56847C1.04225 3.22457 3.73287 2.25004 5.58131 3.70254C6.66412 4.55457 6.93318 5.75551 6.87959 7.10957H0.776465C0.68459 9.53879 2.4335 11.0055 4.66256 10.2574C5.44459 9.99488 5.90506 9.38238 6.13584 8.61676C6.25287 8.23285 6.44647 8.17269 6.8074 8.28207C6.62256 9.24019 6.20365 10.0408 5.32865 10.5418C4.01615 11.2921 2.14256 11.0493 1.15709 10.0069C0.575215 9.39441 0.328027 8.63207 0.218652 7.80847C0.202246 7.67722 0.16834 7.54816 0.14209 7.41801C0.144277 7.19634 0.145371 6.97467 0.145371 6.75301ZM0.787402 6.59004H6.30318C6.26709 4.83347 5.17334 3.58551 3.67818 3.57457C2.03756 3.56144 0.858496 4.77988 0.787402 6.59004Z" fill="black"/>
</g>
<defs>
<clipPath id="clip0_80_560">
<rect width="14" height="14" fill="white"/>
</clipPath>
</defs>
</svg>
