<svg width="17" height="17" viewBox="0 0 17 17" fill="none" xmlns="http://www.w3.org/2000/svg">
<g clip-path="url(#clip0_80_4219)">
<path d="M4.83165 7.12394C4.83165 7.33113 4.85396 7.49913 4.89341 7.62198C4.93804 7.74497 4.99408 7.87938 5.07231 8.02467C5.0998 8.0693 5.11122 8.11392 5.11122 8.15337C5.11122 8.20888 5.07749 8.26493 5.00497 8.32084L4.65262 8.55592C4.60228 8.58912 4.55195 8.60626 4.50746 8.60626C4.45141 8.60626 4.39536 8.57823 4.33932 8.5279C4.2641 8.44675 4.19669 8.35871 4.13797 8.26493C4.07575 8.15734 4.01797 8.04723 3.96479 7.93489C3.52889 8.44954 2.98064 8.70693 2.32057 8.70693C1.85107 8.70693 1.47654 8.57252 1.20215 8.30424C0.92816 8.03556 0.788574 7.67763 0.788574 7.23032C0.788574 6.75512 0.956184 6.36916 1.29764 6.0787C1.63844 5.78758 2.09133 5.64228 2.66774 5.64228C2.85766 5.64228 3.05316 5.65888 3.26008 5.68691C3.46727 5.71493 3.6799 5.75955 3.90356 5.80989V5.40163C3.90356 4.97663 3.81378 4.68045 3.64059 4.50727C3.46129 4.33395 3.15941 4.24988 2.72883 4.24988C2.5332 4.24988 2.33199 4.27219 2.12493 4.32252C1.91936 4.3715 1.71755 4.43511 1.52104 4.51284C1.43125 4.55176 1.36432 4.57407 1.3254 4.58549C1.28609 4.59638 1.25807 4.60209 1.23575 4.60209C1.15739 4.60209 1.11848 4.54605 1.11848 4.42891V4.15491C1.11848 4.06513 1.12937 3.9982 1.15739 3.95888C1.18529 3.91997 1.23575 3.88105 1.31411 3.84161C1.50961 3.74094 1.74469 3.657 2.01855 3.58993C2.29254 3.51728 2.58354 3.48368 2.89113 3.48368C3.55625 3.48368 4.04288 3.63455 4.35632 3.93657C4.66391 4.23845 4.8201 4.69705 4.8201 5.31238V7.12394H4.83165ZM2.56136 7.97434C2.74557 7.97434 2.93589 7.9406 3.13723 7.87366C3.33857 7.8062 3.51747 7.68334 3.66848 7.51573C3.75773 7.40948 3.8252 7.29208 3.8584 7.1578C3.89214 7.0234 3.91445 6.86163 3.91445 6.67105V6.43663C3.74504 6.39501 3.57339 6.36313 3.40033 6.34114C3.22584 6.31914 3.05014 6.30805 2.87426 6.30794C2.49973 6.30794 2.22574 6.38059 2.041 6.53159C1.85679 6.68247 1.76714 6.8947 1.76714 7.17441C1.76714 7.43738 1.83407 7.63301 1.97406 7.76728C2.10846 7.90687 2.3041 7.97434 2.56136 7.97434ZM7.05161 8.57823C6.95094 8.57823 6.884 8.56163 6.83938 8.52219C6.79422 8.48845 6.75531 8.41062 6.72157 8.30438L5.40753 3.98159C5.37432 3.86963 5.35706 3.79698 5.35706 3.75754C5.35706 3.66829 5.40182 3.61809 5.4916 3.61809H6.03945C6.1457 3.61809 6.21835 3.63455 6.25779 3.674C6.30242 3.7072 6.33615 3.78556 6.36936 3.89181L7.30887 7.59409L8.18145 3.89195C8.20907 3.78038 8.24281 3.70734 8.2873 3.67413C8.33246 3.64027 8.41082 3.61795 8.51149 3.61795H8.95867C9.06492 3.61795 9.1377 3.63455 9.18232 3.674C9.22695 3.7072 9.26639 3.78556 9.28857 3.89181L10.1722 7.63872L11.1397 3.89195C11.1729 3.78038 11.2124 3.70734 11.2513 3.67413C11.2959 3.64027 11.3691 3.61795 11.4696 3.61795H11.9895C12.0792 3.61795 12.1296 3.66258 12.1296 3.75754C12.1296 3.78543 12.1239 3.81359 12.1181 3.84732C12.1124 3.88105 12.1015 3.92568 12.0792 3.98677L10.7315 8.30995C10.6977 8.42152 10.6588 8.49416 10.6136 8.52777C10.569 8.56163 10.4964 8.58395 10.4014 8.58395H9.92063C9.81425 8.58395 9.7416 8.56668 9.69697 8.5279C9.65182 8.48845 9.6129 8.4158 9.59059 8.30424L8.72372 4.69705L7.86243 8.29853C7.83454 8.41063 7.80134 8.48327 7.75618 8.52219C7.71143 8.56163 7.6332 8.57823 7.53253 8.57823H7.05161ZM14.2374 8.72924C13.947 8.72924 13.6558 8.69551 13.3763 8.62857C13.0966 8.56163 12.8788 8.48845 12.7335 8.40491C12.6437 8.35458 12.5825 8.29866 12.5601 8.2482C12.5381 8.19888 12.5266 8.1455 12.5264 8.09148V7.8062C12.5264 7.68905 12.571 7.63301 12.6552 7.63301C12.6884 7.63301 12.722 7.63872 12.7558 7.65014C12.789 7.66103 12.8393 7.68334 12.8952 7.70566C13.0929 7.79247 13.2992 7.85818 13.5107 7.90169C13.7342 7.94631 13.9522 7.96863 14.1762 7.96863C14.5286 7.96863 14.8024 7.90687 14.9923 7.78402C15.1827 7.66103 15.2833 7.482 15.2833 7.25277C15.2833 7.09605 15.233 6.96788 15.1325 6.8615C15.0318 6.75525 14.8413 6.66016 14.5675 6.57051L13.7565 6.31883C13.3483 6.19013 13.0462 6.00034 12.8622 5.74866C12.6776 5.5023 12.5825 5.2283 12.5825 4.93784C12.5825 4.70277 12.6329 4.49584 12.7335 4.31681C12.8333 4.13691 12.9706 3.98052 13.136 3.85821C13.3036 3.73005 13.4941 3.63455 13.7177 3.56762C13.9413 3.50068 14.1762 3.47266 14.4222 3.47266C14.5452 3.47266 14.6737 3.47837 14.7967 3.49497C14.9254 3.51157 15.0427 3.53388 15.1603 3.5562C15.2719 3.58422 15.3783 3.61224 15.479 3.64598C15.5796 3.67971 15.658 3.71291 15.714 3.74665C15.7924 3.79127 15.8483 3.8359 15.8815 3.8861C15.9153 3.93126 15.9319 3.99262 15.9319 4.07084V4.33381C15.9319 4.45122 15.8872 4.51284 15.8032 4.51284C15.7585 4.51284 15.6859 4.49013 15.5911 4.44551C15.2719 4.30021 14.914 4.22756 14.5171 4.22756C14.1985 4.22756 13.947 4.2779 13.7737 4.38428C13.5998 4.49013 13.5107 4.65256 13.5107 4.8818C13.5107 5.03852 13.5666 5.17279 13.6782 5.27864C13.7903 5.38489 13.9973 5.49141 14.2935 5.58623L15.0877 5.83791C15.4904 5.96661 15.781 6.14551 15.9542 6.37488C16.1275 6.60424 16.2116 6.86721 16.2116 7.1578C16.2116 7.39846 16.1611 7.61641 16.0663 7.8062C15.9656 7.99665 15.8312 8.16426 15.658 8.29853C15.4847 8.43812 15.2776 8.53879 15.0375 8.61197C14.7858 8.6898 14.5228 8.72924 14.2374 8.72924Z" fill="#252F3E"/>
<path d="M15.672 9.74165C15.0833 9.75002 14.3885 9.88137 13.8629 10.2506C13.7005 10.3679 13.7285 10.5245 13.9075 10.5021C14.5063 10.4295 15.8254 10.2729 16.0604 10.5748C16.2955 10.871 15.798 12.1181 15.5739 12.6719C15.507 12.8392 15.6523 12.9068 15.8032 12.7781C16.7873 11.9506 17.0447 10.2226 16.8434 9.97089C16.7428 9.84804 16.2606 9.73315 15.672 9.74165ZM0.216561 10.0751C0.093444 10.0906 0.0376628 10.2393 0.167686 10.3568C2.36015 12.336 5.26224 13.5273 8.48348 13.5273C10.7818 13.5273 13.4546 12.8062 15.2942 11.4475C15.5961 11.2233 15.3337 10.8825 15.026 11.022C12.9628 11.8945 10.72 12.3195 8.67911 12.3195C5.6539 12.3195 2.72911 11.4864 0.358007 10.1105C0.30621 10.0798 0.257733 10.0701 0.216694 10.0751H0.216561Z" fill="#FF9900"/>
</g>
<defs>
<clipPath id="clip0_80_4219">
<rect width="17" height="17" fill="white"/>
</clipPath>
</defs>
</svg>
