<svg width="18" height="18" viewBox="0 0 18 18" fill="none" xmlns="http://www.w3.org/2000/svg">
<path d="M4.57425 4.43848C2.052 4.43848 0 6.48448 0 8.99998C0 11.5155 2.052 13.5622 4.57425 13.5622H13.425C15.948 13.5622 18 11.5147 18 8.99998C18 6.48523 15.948 4.43848 13.4257 4.43848H4.57425ZM4.48275 5.88748C4.8525 5.89648 5.24775 6.07498 5.4375 6.35473C5.7135 6.69898 5.796 7.15498 6.10875 7.47448C6.52875 7.93348 7.008 8.33698 7.39575 8.82598C7.76325 9.27223 8.025 9.79648 8.25375 10.3245C8.34675 10.4992 8.3475 10.7145 8.48625 10.8645C8.55375 10.9545 8.88675 11.2005 8.81475 11.2875C8.856 11.3775 9.16725 11.502 9.05925 11.589C8.91375 11.619 8.7495 11.625 8.63775 11.5087C8.59725 11.6032 8.50125 11.5537 8.427 11.541L8.40825 11.5965C8.16075 11.613 7.97625 11.3617 7.85925 11.1727C7.626 11.0467 7.3605 10.9702 7.12275 10.8382C7.1085 11.0557 7.1565 11.3242 6.9495 11.4645C6.939 11.8822 7.58175 11.514 7.641 11.8245C7.59525 11.8297 7.54425 11.8177 7.5075 11.853C7.34025 12.0157 7.1475 11.7292 6.954 11.8477C6.6945 11.9782 6.669 12.0847 6.3465 12.1117C6.32925 12.0847 6.336 12.0667 6.351 12.051C6.441 11.946 6.4485 11.8222 6.603 11.7772C6.444 11.7525 6.3105 11.8402 6.17625 11.9092C6.00225 11.9805 6.00375 11.7487 5.73525 11.922C5.70525 11.8972 5.72025 11.8755 5.73675 11.8567C5.805 11.7742 5.89425 11.7615 5.9955 11.7667C5.49825 11.4892 5.26425 12.1042 5.03475 11.799C4.96575 11.817 4.9395 11.8785 4.896 11.9227C4.8585 11.8815 4.887 11.832 4.8885 11.7832C4.8435 11.7622 4.78725 11.7525 4.80075 11.6805C4.713 11.6505 4.65075 11.703 4.58625 11.7525C4.52625 11.7067 4.626 11.64 4.644 11.5927C4.6965 11.502 4.8165 11.574 4.87725 11.5087C5.04975 11.4105 5.29125 11.5687 5.48925 11.5425C5.6415 11.562 5.82975 11.406 5.75325 11.25C5.5905 11.0422 5.619 10.7707 5.616 10.5225C5.59575 10.3785 5.24775 10.194 5.1465 10.038C5.022 9.89773 4.92525 9.73498 4.8285 9.57448C4.47825 8.89948 4.5885 8.03098 4.1475 7.40323C3.948 7.51348 3.6885 7.46173 3.51675 7.31398C3.42375 7.39873 3.41925 7.50898 3.41175 7.62673C3.18975 7.40398 3.2175 6.98473 3.396 6.73723C3.468 6.63973 3.555 6.55948 3.6525 6.48823C3.67425 6.47323 3.68175 6.45748 3.681 6.43273C3.76875 6.03748 4.11225 5.87773 4.48275 5.88748ZM13.7887 6.23248C14.2065 6.23248 14.5988 6.39448 14.8935 6.68848C15.1882 6.98248 15.351 7.37473 15.351 7.79098C15.3517 7.9959 15.3116 8.19892 15.233 8.38819C15.1545 8.57747 15.0391 8.74923 14.8935 8.89348V8.89423L14.217 9.56923C14.0364 9.74843 13.8151 9.88121 13.572 9.95623L13.56 9.95998L13.5563 9.97198C13.4784 10.1781 13.3572 10.3651 13.2008 10.5202L12.5243 11.1952C12.2287 11.4892 11.8365 11.6512 11.418 11.6512C10.9995 11.6512 10.608 11.4892 10.3125 11.1952C10.1675 11.0505 10.0526 10.8787 9.97409 10.6895C9.89563 10.5003 9.85524 10.2975 9.85524 10.0927C9.85524 9.88792 9.89563 9.68513 9.97409 9.49594C10.0526 9.30677 10.1675 9.13491 10.3125 8.99023L10.989 8.31523C11.1686 8.13581 11.3896 8.00341 11.6325 7.92973L11.6453 7.92523L11.6497 7.91323C11.7287 7.70703 11.85 7.51973 12.006 7.36348L12.6825 6.68848C12.8275 6.54316 12.9998 6.42804 13.1896 6.34976C13.3793 6.27149 13.5835 6.23163 13.7887 6.23248ZM13.788 6.90523C13.6711 6.90471 13.5552 6.92738 13.447 6.97192C13.3389 7.01646 13.2407 7.08199 13.158 7.16473L12.4823 7.83973C12.3919 7.92987 12.3222 8.03847 12.2778 8.15808C12.2334 8.2777 12.2154 8.4055 12.225 8.53273L12.2288 8.57623C12.2535 8.77498 12.3412 8.95423 12.4823 9.09448C12.5798 9.19198 12.687 9.25348 12.8175 9.29623C12.8241 9.33539 12.8276 9.37501 12.828 9.41473C12.8285 9.50249 12.8116 9.58949 12.7781 9.67062C12.7446 9.75175 12.6953 9.82539 12.633 9.88723L12.591 9.92923C12.3703 9.85711 12.1698 9.73374 12.006 9.56923C11.7811 9.34601 11.6303 9.05904 11.574 8.74723L11.5665 8.70373L11.532 8.73148C11.5091 8.75017 11.4873 8.77021 11.4667 8.79148L10.7895 9.46573C10.665 9.58985 10.5802 9.74817 10.546 9.92059C10.5117 10.093 10.5294 10.2717 10.597 10.434C10.6645 10.5963 10.7787 10.7349 10.9252 10.8321C11.0717 10.9293 11.2437 10.9808 11.4195 10.98C11.6475 10.98 11.8747 10.893 12.048 10.7205L12.7245 10.0455C12.8072 9.96324 12.8727 9.86548 12.9175 9.75781C12.9623 9.65015 12.9853 9.5347 12.9853 9.4181C12.9853 9.3015 12.9623 9.18606 12.9175 9.07839C12.8727 8.97072 12.8072 8.87296 12.7245 8.79073C12.6317 8.6991 12.5202 8.62873 12.3975 8.58448C12.3908 8.54482 12.3873 8.50469 12.387 8.46448C12.3869 8.36773 12.406 8.27194 12.4434 8.18269C12.4807 8.09345 12.5355 8.01255 12.6045 7.94473C12.8674 8.03307 13.1017 8.19055 13.2827 8.40063C13.4638 8.61072 13.5849 8.86567 13.6335 9.13873L13.641 9.18223L13.6755 9.15373C13.6987 9.13505 13.7207 9.11502 13.7415 9.09373L14.418 8.41948C14.5844 8.25309 14.6779 8.02741 14.6779 7.7921C14.6779 7.55679 14.5844 7.33112 14.418 7.16473C14.3353 7.08199 14.2371 7.01646 14.129 6.97192C14.0208 6.92738 13.9049 6.90471 13.788 6.90523ZM6.3075 10.773C6.2475 11.0047 6.22875 11.3977 5.928 11.409C5.90325 11.5417 6.02025 11.592 6.12675 11.5492C6.2325 11.5012 6.28275 11.5875 6.31875 11.6737C6.48225 11.6977 6.72375 11.619 6.73275 11.4262C6.489 11.286 6.41325 11.019 6.3075 10.773Z" fill="black"/>
</svg>
