<svg width="14" height="14" viewBox="0 0 14 14" fill="none" xmlns="http://www.w3.org/2000/svg">
<g clip-path="url(#clip0_82_5015)">
<path d="M8.63968 8.503L8.37116 8.96932C8.33141 9.03833 8.27417 9.09564 8.20522 9.13549C8.13627 9.17535 8.05803 9.19633 7.97839 9.19632H5.92116C5.84152 9.19633 5.76329 9.17535 5.69433 9.13549C5.62538 9.09564 5.56815 9.03833 5.52839 8.96932L5.25982 8.503H8.63968ZM9.39147 7.19761L8.91798 8.01978H4.98157L4.50809 7.19761H9.39147ZM8.93537 5.92109L9.39223 6.71439H4.50732L4.96418 5.92109H8.93537ZM7.97834 4.71436C8.05799 4.71434 8.13624 4.73532 8.2052 4.77517C8.27416 4.81502 8.3314 4.87235 8.37116 4.94136L8.65707 5.43787H5.24249L5.52845 4.94136C5.5682 4.87235 5.62544 4.81504 5.69439 4.77519C5.76334 4.73533 5.84158 4.71435 5.92122 4.71436H7.97839H7.97834Z" fill="#00435B"/>
<path d="M2.92704 4.49817C2.69916 3.39315 2.65021 2.54561 2.79754 1.93021C2.88515 1.56419 3.04528 1.26559 3.28885 1.05012C3.54599 0.822678 3.87106 0.71106 4.23637 0.71106C4.83892 0.71106 5.47242 0.985865 6.14934 1.50786C6.42551 1.72081 6.71207 1.97746 7.00968 2.27797C7.03342 2.24751 7.06016 2.21874 7.09002 2.19211C7.93144 1.44234 8.63986 0.976404 9.2458 0.79681C9.60608 0.689951 9.94432 0.679779 10.2523 0.783467C10.5775 0.892842 10.8365 1.11908 11.0194 1.43589C11.321 1.95876 11.4005 2.64579 11.2881 3.49416C11.2423 3.83995 11.1639 4.21658 11.0532 4.62472C11.0949 4.62975 11.1368 4.63904 11.1783 4.65277C12.2458 5.0066 13.0018 5.38701 13.4595 5.82183C13.7319 6.0805 13.9097 6.36848 13.974 6.68731C14.0418 7.0238 13.9756 7.36128 13.7931 7.67786C13.492 8.20002 12.9383 8.61176 12.1496 8.93792C11.833 9.0689 11.4746 9.18751 11.0742 9.29421C11.0925 9.33544 11.1067 9.37925 11.1162 9.42519C11.344 10.5302 11.3929 11.3777 11.2457 11.9931C11.1581 12.3592 10.9979 12.6578 10.7543 12.8732C10.4972 13.1007 10.1721 13.2123 9.80684 13.2123C9.20424 13.2123 8.57079 12.9375 7.89387 12.4155C7.61474 12.2002 7.32501 11.9404 7.02396 11.6358C6.99226 11.6853 6.95391 11.7302 6.90999 11.7693C6.06856 12.5192 5.36014 12.985 4.75421 13.1647C4.39392 13.2715 4.05568 13.2817 3.74768 13.178C3.42251 13.0686 3.16346 12.8424 2.98064 12.5256C2.67898 12.0027 2.59946 11.3157 2.7119 10.4673C2.75942 10.1091 2.84184 9.7176 2.95898 9.29235C2.91229 9.28761 2.86626 9.27776 2.82171 9.26298C1.75416 8.90915 0.998159 8.52875 0.540479 8.09393C0.268135 7.83526 0.0903463 7.54727 0.0260338 7.22844C-0.0417787 6.89195 0.0243932 6.55442 0.20694 6.23783C0.508049 5.71573 1.06171 5.30394 1.85041 4.97783C2.17651 4.84292 2.5468 4.72119 2.96166 4.61203C2.94664 4.57522 2.93505 4.53711 2.92704 4.49817Z" fill="#002B3B"/>
<path d="M10.3713 9.5338C10.4222 9.52477 10.4747 9.53569 10.5178 9.5643C10.5609 9.59291 10.5914 9.63701 10.6029 9.68747L10.6041 9.69359L10.6155 9.75238C10.9824 11.6815 10.7239 12.6462 9.84 12.6462C8.97522 12.6462 7.87431 11.8231 6.53731 10.1769C6.51355 10.1476 6.49848 10.1123 6.49381 10.0749C6.48913 10.0375 6.49504 9.99953 6.51086 9.96532C6.52668 9.93112 6.55177 9.90203 6.58329 9.88138C6.61481 9.86072 6.6515 9.84932 6.68917 9.84847H6.69541L6.76585 9.84896C7.32847 9.85202 7.8754 9.83239 8.40669 9.79012C9.03379 9.74019 9.68867 9.65477 10.3713 9.5338ZM4.30092 8.0755L4.30431 8.08124L4.33963 8.14288C4.62275 8.63506 4.91768 9.1022 5.22448 9.54435C5.58585 10.065 5.99218 10.5921 6.44346 11.1256C6.47696 11.1652 6.4939 11.2162 6.49075 11.2679C6.4876 11.3197 6.46461 11.3683 6.42656 11.4035L6.42148 11.408L6.37609 11.4471C4.88274 12.7267 3.91214 12.9821 3.46431 12.2134C3.02588 11.4611 3.18485 10.093 3.94113 8.1093C3.95452 8.07415 3.97748 8.04346 4.00742 8.02069C4.03735 7.99792 4.07306 7.98399 4.11051 7.98047C4.14795 7.97695 4.18563 7.98399 4.21929 8.00079C4.25294 8.01758 4.28122 8.04346 4.30092 8.0755ZM11.129 5.2288L11.1352 5.23082L11.1914 5.25018C13.0346 5.89139 13.7349 6.59604 13.2923 7.36413C12.8593 8.11531 11.6008 8.6623 9.51657 9.00497C9.4788 9.01119 9.44004 9.00651 9.40482 8.99149C9.36961 8.97647 9.33941 8.95172 9.31776 8.92015C9.2961 8.88858 9.2839 8.8515 9.28257 8.81324C9.28123 8.77498 9.29083 8.73713 9.31024 8.70413C9.60872 8.1963 9.87762 7.6911 10.1168 7.18836C10.3881 6.61824 10.6426 6.00623 10.8805 5.3525C10.8978 5.30498 10.9323 5.2657 10.9772 5.24245C11.0221 5.2192 11.0741 5.21368 11.1229 5.22699L11.129 5.2288ZM4.6181 4.90598C4.64092 4.91937 4.66087 4.93714 4.67681 4.95824C4.69276 4.97935 4.70439 5.0034 4.71104 5.029C4.7177 5.05461 4.71924 5.08127 4.71559 5.10748C4.71193 5.13368 4.70315 5.1589 4.68974 5.18171C4.39115 5.68948 4.12231 6.19474 3.8831 6.69748C3.61185 7.2676 3.35728 7.87955 3.11939 8.53334C3.10173 8.58189 3.06609 8.6218 3.01985 8.64482C2.9736 8.66784 2.92028 8.67222 2.87089 8.65705L2.86477 8.65502L2.80855 8.63561C0.965307 7.99445 0.265034 7.28975 0.707674 6.52172C1.14058 5.77048 2.39916 5.22355 4.48335 4.88087C4.52984 4.87322 4.57753 4.88208 4.6181 4.90598ZM10.5356 1.74788C10.974 2.50027 10.8151 3.86834 10.0588 5.85207C10.0454 5.88722 10.0224 5.91791 9.99251 5.94068C9.96258 5.96345 9.92686 5.97738 9.88942 5.9809C9.85197 5.98441 9.81429 5.97738 9.78064 5.96058C9.74699 5.94379 9.71871 5.9179 9.69901 5.88587L9.69562 5.88013L9.66029 5.81849C9.37717 5.3263 9.08224 4.85916 8.77545 4.41702C8.41407 3.89639 8.00774 3.36931 7.55646 2.83578C7.52297 2.79619 7.50603 2.7452 7.50918 2.69343C7.51232 2.64166 7.53531 2.5931 7.57336 2.55786L7.57845 2.55332L7.62384 2.51422C9.11719 1.2347 10.0878 0.97925 10.5356 1.74788ZM4.23551 1.29004C5.10034 1.29004 6.20125 2.11309 7.5382 3.75929C7.56195 3.78855 7.57702 3.82388 7.5817 3.86128C7.58637 3.89867 7.58046 3.93663 7.56464 3.97083C7.54883 4.00504 7.52373 4.03412 7.49221 4.05478C7.46069 4.07544 7.42401 4.08684 7.38633 4.08769H7.3801L7.30966 4.08725C6.74709 4.08419 6.2001 4.10382 5.66887 4.14609C5.04171 4.19602 4.38683 4.28145 3.70422 4.40241C3.65328 4.41143 3.60082 4.4005 3.55771 4.37189C3.51461 4.34328 3.48416 4.29919 3.47267 4.24874L3.47136 4.24256L3.46004 4.18383C3.09309 2.25462 3.35154 1.29004 4.23551 1.29004Z" fill="#FF4154"/>
<path d="M6.08668 4.73975H7.8135C7.93756 4.73974 8.05943 4.77248 8.1668 4.83465C8.27416 4.89683 8.36321 4.98624 8.42496 5.09385L9.29203 6.60464C9.35332 6.71145 9.38557 6.83244 9.38557 6.95557C9.38557 7.07871 9.35332 7.1997 9.29203 7.3065L8.42496 8.8173C8.3632 8.9249 8.27415 9.01431 8.16679 9.07648C8.05943 9.13866 7.93756 9.1714 7.8135 9.1714H6.08668C5.83414 9.1714 5.60089 9.03632 5.47517 8.8173L4.60821 7.3065C4.54692 7.1997 4.51466 7.07871 4.51466 6.95557C4.51466 6.83244 4.54692 6.71145 4.60821 6.60464L5.47522 5.09385C5.53698 4.98624 5.62604 4.89683 5.73342 4.83465C5.84079 4.77248 5.96261 4.73974 6.08668 4.73975ZM7.55029 5.19573C7.80294 5.19573 8.03635 5.33097 8.16196 5.55016L8.76659 6.60497C8.82776 6.71169 8.85995 6.83256 8.85995 6.95557C8.85995 7.07858 8.82776 7.19945 8.76659 7.30618L8.16196 8.36099C8.10023 8.46867 8.01116 8.55815 7.90375 8.62038C7.79634 8.6826 7.67441 8.71537 7.55029 8.71536H6.34989C6.09724 8.71536 5.86383 8.58018 5.73821 8.36099L5.13359 7.30618C5.07242 7.19945 5.04023 7.07858 5.04023 6.95557C5.04023 6.83256 5.07242 6.71169 5.13359 6.60497L5.73821 5.55016C5.79995 5.44248 5.88901 5.35301 5.99641 5.29078C6.1038 5.22856 6.22572 5.19579 6.34984 5.19579L7.55029 5.19573ZM7.26662 5.69448H6.63356C6.50954 5.69448 6.38771 5.72719 6.28038 5.78931C6.17304 5.85143 6.08399 5.94077 6.02221 6.04831L5.70272 6.60432C5.64131 6.7112 5.60899 6.83231 5.60899 6.95557C5.60899 7.07884 5.64131 7.19995 5.70272 7.30683L6.02221 7.8629C6.08399 7.97043 6.17304 8.05977 6.28038 8.12189C6.38771 8.18402 6.50954 8.21673 6.63356 8.21672H7.26662C7.51906 8.21672 7.75225 8.08175 7.87797 7.8629L8.19746 7.30683C8.25887 7.19995 8.29119 7.07884 8.29119 6.95557C8.29119 6.83231 8.25887 6.7112 8.19746 6.60432L7.87797 6.04825C7.81619 5.94072 7.72714 5.85138 7.6198 5.78926C7.51247 5.72713 7.39064 5.69448 7.26662 5.69448ZM6.99351 6.17185C7.24573 6.17185 7.47875 6.3066 7.60454 6.52513L7.64987 6.60388C7.71145 6.71086 7.74385 6.83214 7.74385 6.95557C7.74385 7.07901 7.71145 7.20029 7.64987 7.30727L7.60454 7.38602C7.54272 7.49341 7.45368 7.5826 7.34641 7.64463C7.23914 7.70665 7.11742 7.7393 6.99351 7.7393H6.90667C6.78276 7.7393 6.66104 7.70665 6.55377 7.64463C6.4465 7.5826 6.35746 7.49341 6.29564 7.38602L6.25031 7.30727C6.18873 7.20029 6.15633 7.07901 6.15633 6.95557C6.15633 6.83214 6.18873 6.71086 6.25031 6.60388L6.29564 6.52513C6.35746 6.41774 6.4465 6.32854 6.55377 6.26652C6.66104 6.2045 6.78276 6.17185 6.90667 6.17185H6.99351ZM6.9502 6.64211C6.89513 6.64208 6.84102 6.65655 6.79331 6.68407C6.7456 6.71158 6.70597 6.75116 6.6784 6.79884C6.65087 6.84649 6.63638 6.90055 6.63638 6.95557C6.63638 7.0106 6.65087 7.06466 6.6784 7.11231C6.70595 7.15999 6.74556 7.19959 6.79325 7.22712C6.84095 7.25464 6.89505 7.26914 6.95012 7.26914C7.00519 7.26914 7.05929 7.25464 7.10698 7.22712C7.15467 7.19959 7.19429 7.15999 7.22183 7.11231C7.24936 7.06466 7.26385 7.0106 7.26385 6.95557C7.26385 6.90055 7.24936 6.84649 7.22183 6.79884C7.19429 6.75118 7.15469 6.7116 7.10701 6.68409C7.05933 6.65658 7.00525 6.6421 6.9502 6.64211ZM4.40674 6.95557H4.97111H4.40674Z" fill="#FFD94C"/>
</g>
<defs>
<clipPath id="clip0_82_5015">
<rect width="14" height="14" fill="white"/>
</clipPath>
</defs>
</svg>
