<svg width="14" height="14" viewBox="0 0 14 14" fill="none" xmlns="http://www.w3.org/2000/svg">
<g clip-path="url(#clip0_83_5135)">
<path fill-rule="evenodd" clip-rule="evenodd" d="M13.2825 4.6502C13.2825 3.70209 12.9644 2.92665 12.4363 2.3192C12.5211 2.09909 12.8034 1.21553 12.3547 0.0200858C12.3547 0.0200858 11.664 -0.213248 10.0913 0.910646C9.4341 0.717752 8.72943 0.621313 8.02943 0.618199C7.32943 0.621313 6.62477 0.717752 5.96832 0.910646C4.39487 -0.213248 3.70343 0.0200858 3.70343 0.0200858C3.25465 1.21553 3.53777 2.09909 3.62254 2.3192C3.09521 2.92665 2.77477 3.70209 2.77477 4.6502C2.77477 7.97909 4.69743 8.7242 6.52599 8.94353C6.52599 8.94353 5.21154 9.75787 5.21154 11.1268C4.74254 11.3492 2.75765 12.0305 2.02265 10.7029C2.02265 10.7029 1.58787 9.86909 0.761102 9.80765C0.761102 9.80765 -0.0431255 9.79675 0.704321 10.3358C0.704321 10.3358 1.2441 10.6033 1.61899 11.6066C1.61899 11.6066 2.03587 13.7206 5.1851 12.771C5.21699 12.7873 5.19677 13.7938 5.19677 13.9999H10.8637C10.8637 13.9999 10.873 11.98 10.873 11.3375C10.873 9.75787 9.81832 9.20487 9.52199 8.93653C11.3568 8.72187 13.2825 7.98765 13.2825 4.6502Z" fill="#0162EA"/>
</g>
<defs>
<clipPath id="clip0_83_5135">
<rect width="14" height="14" fill="white"/>
</clipPath>
</defs>
</svg>
