<svg width="18" height="18" viewBox="0 0 18 18" fill="none" xmlns="http://www.w3.org/2000/svg">
<g clip-path="url(#clip0_82_5083)">
<path d="M4.57425 4.41016H13.425C15.948 4.41016 18 6.46891 18 9.00016C18 11.5314 15.948 13.5902 13.4257 13.5902H4.575C2.052 13.5902 0 11.5314 0 9.00016C0 6.46891 2.052 4.41016 4.57425 4.41016ZM8.6385 11.5254C8.7495 11.6424 8.91375 11.6364 9.05925 11.6064H9.06075C9.12825 11.5517 9.03225 11.4819 8.94075 11.4159C8.88525 11.3754 8.832 11.3372 8.81625 11.3034C8.86725 11.2412 8.71725 11.1009 8.5995 10.9907C8.56002 10.9549 8.52246 10.9171 8.487 10.8774C8.4045 10.7874 8.37075 10.6727 8.337 10.5572C8.31693 10.4804 8.2893 10.4057 8.2545 10.3344C8.0265 9.80341 7.76475 9.27691 7.39725 8.82691C7.161 8.52841 6.89175 8.26066 6.6225 7.99291C6.4485 7.82041 6.27525 7.64791 6.11025 7.46716C5.94075 7.29166 5.83875 7.07641 5.736 6.85966C5.6505 6.67966 5.565 6.49816 5.439 6.33991C5.05875 5.77741 3.85875 5.62366 3.6825 6.41866C3.6825 6.44341 3.675 6.45916 3.65325 6.47491C3.55569 6.54509 3.46922 6.62953 3.39675 6.72541C3.21825 6.97441 3.19125 7.39666 3.41325 7.62016L3.414 7.60516C3.4215 7.49266 3.429 7.38766 3.51825 7.30591C3.68925 7.45441 3.95025 7.50691 4.149 7.39591C4.389 7.74091 4.4655 8.15716 4.54275 8.57491C4.6065 8.92291 4.67025 9.27241 4.82925 9.58066L4.83975 9.59716C4.93275 9.75316 5.02725 9.91141 5.14725 10.0472C5.1915 10.1147 5.28075 10.1874 5.37 10.2602C5.48775 10.3562 5.6055 10.4522 5.61675 10.5347V10.6442C5.616 10.8617 5.61525 11.0867 5.75475 11.2667C5.832 11.4227 5.64225 11.5802 5.49075 11.5607C5.40103 11.5659 5.3111 11.555 5.22525 11.5284C5.1015 11.4984 4.9785 11.4684 4.87875 11.5262C4.85025 11.5562 4.8105 11.5577 4.77 11.5584C4.722 11.5599 4.67325 11.5614 4.64475 11.6109C4.63576 11.6288 4.62441 11.6455 4.611 11.6604C4.5795 11.6987 4.54575 11.7407 4.58625 11.7722L4.5975 11.7639C4.659 11.7167 4.7175 11.6717 4.8 11.7002C4.7895 11.7617 4.82925 11.7774 4.869 11.7939L4.88925 11.8029C4.88828 11.8173 4.88627 11.8316 4.88325 11.8457C4.8765 11.8802 4.8705 11.9132 4.89675 11.9432L4.93125 11.9012C4.959 11.8667 4.986 11.8307 5.0355 11.8187C5.1435 11.9627 5.25225 11.9027 5.38875 11.8277C5.54325 11.7422 5.733 11.6379 5.99625 11.7857C5.895 11.7804 5.805 11.7932 5.7375 11.8764C5.72025 11.8952 5.706 11.9169 5.736 11.9417C5.89125 11.8404 5.9565 11.8772 6.01725 11.9117C6.06225 11.9357 6.1035 11.9589 6.17625 11.9297L6.22875 11.9019C6.345 11.8389 6.46425 11.7744 6.603 11.7969C6.49875 11.8269 6.462 11.8922 6.4215 11.9642C6.40111 12.0019 6.37752 12.0377 6.351 12.0714C6.33525 12.0872 6.3285 12.1059 6.34575 12.1329C6.56325 12.1149 6.64575 12.0594 6.75675 11.9852C6.80925 11.9499 6.86925 11.9102 6.9525 11.8674C7.0455 11.8104 7.1385 11.8464 7.2285 11.8824C7.326 11.9199 7.41975 11.9574 7.50675 11.8727C7.5345 11.8464 7.569 11.8464 7.6035 11.8457L7.641 11.8442C7.61325 11.6987 7.461 11.7009 7.305 11.7024C7.125 11.7047 6.94275 11.7062 6.94875 11.4812C7.11525 11.3672 7.11675 11.1699 7.11825 10.9824C7.11775 10.9374 7.119 10.8934 7.122 10.8504C7.24425 10.9194 7.374 10.9727 7.503 11.0259C7.6245 11.0754 7.74525 11.1257 7.8585 11.1872C7.97625 11.3777 8.1615 11.6297 8.4075 11.6132L8.427 11.5577L8.47125 11.5682C8.53575 11.5839 8.60475 11.6019 8.6385 11.5254ZM13.4603 9.36091C13.5666 9.46666 13.7018 9.53861 13.849 9.56771C13.9961 9.5968 14.1485 9.58175 14.2871 9.52444C14.4257 9.46712 14.5443 9.37011 14.6279 9.2456C14.7115 9.12109 14.7564 8.97463 14.757 8.82466C14.757 8.72499 14.7373 8.6263 14.6991 8.53425C14.6609 8.4422 14.6049 8.3586 14.5343 8.28823C14.4638 8.21786 14.38 8.16211 14.2878 8.12417C14.1957 8.08624 14.0969 8.06686 13.9972 8.06716C13.9039 8.06701 13.8113 8.08431 13.7242 8.11816L13.2892 7.48216L12.9855 7.69066L13.4227 8.32891C13.2973 8.47377 13.2314 8.66079 13.2384 8.85229C13.2453 9.04379 13.3246 9.22553 13.4603 9.36091ZM12.0968 7.30291C12.1958 7.35187 12.3042 7.37869 12.4147 7.38148C12.5251 7.38427 12.6348 7.36298 12.7361 7.31908C12.8375 7.27519 12.9281 7.20974 13.0016 7.12729C13.0751 7.04484 13.1297 6.94737 13.1617 6.84166C13.1938 6.73597 13.2022 6.62456 13.1865 6.51526C13.1709 6.40596 13.1314 6.30141 13.071 6.20898C13.0106 6.11654 12.9307 6.03847 12.8369 5.98023C12.7431 5.922 12.6376 5.88502 12.528 5.87191C12.3502 5.85003 12.1703 5.89158 12.0201 5.98926C11.8699 6.08694 11.7589 6.23448 11.7067 6.40591C11.6553 6.5774 11.6662 6.76158 11.7376 6.92579C11.809 7.09 11.9362 7.2236 12.0968 7.30291ZM12.0968 11.7032C12.1958 11.752 12.3042 11.7787 12.4146 11.7814C12.525 11.7842 12.6347 11.7628 12.736 11.719C12.8373 11.6751 12.9279 11.6097 13.0014 11.5273C13.0749 11.4449 13.1296 11.3475 13.1617 11.2419C13.1938 11.1362 13.2022 11.0248 13.1865 10.9155C13.1709 10.8062 13.1314 10.7017 13.071 10.6092C13.0106 10.5168 12.9307 10.4387 12.8369 10.3805C12.7431 10.3222 12.6376 10.2853 12.528 10.2722C12.3502 10.2503 12.1703 10.2918 12.0201 10.3895C11.8699 10.4872 11.7589 10.6347 11.7067 10.8062C11.6553 10.9776 11.6662 11.1618 11.7376 11.326C11.809 11.4902 11.9362 11.6239 12.0968 11.7032ZM12.7958 9.01366V8.63641H11.6332C11.6039 8.52197 11.5478 8.41609 11.4698 8.32741L11.907 7.67941L11.589 7.46941L11.1518 8.11666C11.0717 8.08758 10.9872 8.07236 10.902 8.07166C10.701 8.07166 10.5082 8.15116 10.3665 8.29216C10.2442 8.41259 10.1669 8.57124 10.1473 8.74173C10.1277 8.91222 10.167 9.08428 10.2588 9.22931C10.3505 9.37434 10.4892 9.4836 10.6516 9.53892C10.8141 9.59424 10.9906 9.5923 11.1518 9.53341L11.589 10.1814L11.904 9.97066L11.4698 9.32266C11.5478 9.23341 11.6033 9.12766 11.6325 9.01366H12.7958Z" fill="black"/>
</g>
<defs>
<clipPath id="clip0_82_5083">
<rect width="18" height="18" fill="white"/>
</clipPath>
</defs>
</svg>
