<svg width="16" height="13" viewBox="0 0 16 13" fill="none" xmlns="http://www.w3.org/2000/svg">
<path d="M14.3886 0C14.8383 0 15.2192 0.156127 15.5315 0.46838C15.8437 0.780634 15.9999 1.16158 15.9999 1.61123V11.2037C15.9999 11.6533 15.8437 12.0343 15.5315 12.3465C15.2192 12.6588 14.8383 12.8149 14.3886 12.8149H1.61123C1.16158 12.8149 0.780634 12.6588 0.46838 12.3465C0.156127 12.0343 0 11.6533 0 11.2037V1.61123C0 1.16158 0.156127 0.780634 0.46838 0.46838C0.780634 0.156127 1.16158 0 1.61123 0H14.3886ZM14.3886 3.22246V1.61123L7.9812 5.62056L1.61123 1.61123V3.22246L7.9812 7.19432L14.3886 3.22246Z" fill="#0162EA"/>
</svg>
