<svg width="14" height="14" viewBox="0 0 14 14" fill="none" xmlns="http://www.w3.org/2000/svg">
<g clip-path="url(#clip0_74_207)">
<path d="M8.15676 6.4623H9.39284C9.42152 6.4623 9.44903 6.45095 9.46936 6.43073C9.48969 6.41051 9.50119 6.38306 9.50134 6.35438V5.25363C9.50134 5.22486 9.48991 5.19726 9.46957 5.17691C9.44922 5.15657 9.42162 5.14513 9.39284 5.14513H8.15676C8.12814 5.14513 8.10069 5.1565 8.08045 5.17674C8.06021 5.19698 8.04884 5.22443 8.04884 5.25305V6.35438C8.04884 6.41388 8.09726 6.4623 8.15676 6.4623ZM6.43359 3.2948H7.66909C7.69787 3.2948 7.72547 3.28337 7.74581 3.26302C7.76616 3.24267 7.77759 3.21508 7.77759 3.1863V2.08497C7.77744 2.05629 7.76594 2.02884 7.74561 2.00862C7.72528 1.9884 7.69777 1.97705 7.66909 1.97705H6.43359C6.40497 1.97705 6.37752 1.98842 6.35729 2.00866C6.33705 2.0289 6.32568 2.05635 6.32568 2.08497V3.1863C6.32568 3.2458 6.37351 3.2948 6.43359 3.2948ZM6.43359 4.87855H7.66909C7.69782 4.8784 7.72533 4.86692 7.74565 4.8466C7.76596 4.82629 7.77744 4.79878 7.77759 4.77005V3.6693C7.77744 3.64063 7.76594 3.61318 7.74561 3.59296C7.72528 3.57273 7.69777 3.56138 7.66909 3.56138H6.43359C6.40497 3.56138 6.37752 3.57275 6.35729 3.59299C6.33705 3.61323 6.32568 3.64068 6.32568 3.6693V4.77005C6.32568 4.82955 6.37351 4.87797 6.43359 4.87855ZM4.72443 4.87855H5.96109C5.98967 4.87824 6.01697 4.86668 6.03706 4.84636C6.05716 4.82605 6.06843 4.79863 6.06843 4.77005V3.6693C6.06843 3.64068 6.05706 3.61323 6.03682 3.59299C6.01658 3.57275 5.98913 3.56138 5.96051 3.56138H4.72501C4.69639 3.56138 4.66894 3.57275 4.6487 3.59299C4.62846 3.61323 4.61709 3.64068 4.61709 3.6693V4.77005C4.61709 4.82955 4.66551 4.87797 4.72501 4.87855M2.99601 4.87855H4.23209C4.26077 4.8784 4.28822 4.8669 4.30844 4.84657C4.32866 4.82624 4.34001 4.79873 4.34001 4.77005V3.6693C4.34001 3.64068 4.32864 3.61323 4.3084 3.59299C4.28816 3.57275 4.26072 3.56138 4.23209 3.56138H2.99601C2.96733 3.56138 2.93983 3.57273 2.91949 3.59296C2.89916 3.61318 2.88766 3.64063 2.88751 3.6693V4.77005C2.88751 4.82955 2.93651 4.87797 2.99601 4.87855ZM6.43359 6.4623H7.66909C7.69777 6.4623 7.72528 6.45095 7.74561 6.43073C7.76594 6.41051 7.77744 6.38306 7.77759 6.35438V5.25363C7.77759 5.22486 7.76616 5.19726 7.74581 5.17691C7.72547 5.15657 7.69787 5.14513 7.66909 5.14513H6.43359C6.40497 5.14513 6.37752 5.1565 6.35729 5.17674C6.33705 5.19698 6.32568 5.22443 6.32568 5.25305V6.35438C6.32568 6.41388 6.37351 6.4623 6.43359 6.4623ZM4.72443 6.4623H5.96109C5.98961 6.46215 6.01691 6.45071 6.03703 6.43049C6.05714 6.41027 6.06843 6.3829 6.06843 6.35438V5.25363C6.0685 5.23946 6.06579 5.22541 6.06044 5.21229C6.05508 5.19917 6.0472 5.18723 6.03723 5.17715C6.02727 5.16708 6.01541 5.15907 6.00235 5.15357C5.98928 5.14808 5.97527 5.14521 5.96109 5.14513H4.72443C4.69591 5.14529 4.66861 5.15673 4.6485 5.17695C4.62838 5.19717 4.61709 5.22453 4.61709 5.25305V6.35438C4.61709 6.41388 4.66551 6.4623 4.72501 6.4623M2.99601 6.4623H4.23209C4.26072 6.4623 4.28816 6.45093 4.3084 6.43069C4.32864 6.41046 4.34001 6.38301 4.34001 6.35438V5.25363C4.34009 5.23946 4.33737 5.22541 4.33202 5.21229C4.32667 5.19917 4.31878 5.18723 4.30882 5.17715C4.29885 5.16708 4.28699 5.15907 4.27393 5.15357C4.26087 5.14808 4.24685 5.14521 4.23268 5.14513H2.99601C2.96723 5.14513 2.93964 5.15657 2.91929 5.17691C2.89894 5.19726 2.88751 5.22486 2.88751 5.25363V6.35438C2.88751 6.41388 2.93651 6.4623 2.99601 6.4623ZM1.29268 6.4623H2.52934C2.55786 6.46215 2.58516 6.45071 2.60528 6.43049C2.62539 6.41027 2.63668 6.3829 2.63668 6.35438V5.25363C2.63675 5.23946 2.63404 5.22541 2.62869 5.21229C2.62333 5.19917 2.61545 5.18723 2.60548 5.17715C2.59552 5.16708 2.58366 5.15907 2.5706 5.15357C2.55753 5.14808 2.54352 5.14521 2.52934 5.14513H1.29268C1.26416 5.14529 1.23686 5.15673 1.21674 5.17695C1.19663 5.19717 1.18534 5.22453 1.18534 5.25305V6.35438C1.18534 6.41388 1.23259 6.4623 1.29268 6.4623ZM13.8618 5.7693C13.8238 5.73955 13.4698 5.4718 12.7219 5.4718C12.5248 5.47238 12.3276 5.4893 12.1328 5.52255C11.9881 4.53088 11.1685 4.04672 11.1318 4.02572L10.9311 3.90963L10.7993 4.10038C10.6336 4.35588 10.5134 4.63822 10.4423 4.93455C10.3081 5.50038 10.3898 6.03238 10.6773 6.4868C10.3303 6.68047 9.77318 6.72772 9.66001 6.7318H0.438093C0.32231 6.73195 0.211296 6.77794 0.129315 6.8597C0.0473348 6.94146 0.00105568 7.05235 0.000593265 7.16813C-0.0102091 7.97596 0.12659 8.77896 0.40426 9.53763C0.722177 10.3706 1.19468 10.9843 1.81009 11.36C2.49843 11.7817 3.61843 12.0232 4.88718 12.0232C5.46059 12.025 6.03226 11.9731 6.59634 11.8681C7.37967 11.7242 8.13342 11.4503 8.82643 11.0578C9.39809 10.7271 9.91143 10.3065 10.3489 9.8118C11.0793 8.98463 11.5144 8.06355 11.8382 7.24513H11.9671C12.7674 7.24513 13.2592 6.92488 13.5304 6.65655C13.7107 6.48563 13.8513 6.27738 13.9428 6.04638L14 5.87838L13.8618 5.7693Z" fill="#2496ED"/>
</g>
<defs>
<clipPath id="clip0_74_207">
<rect width="14" height="14" fill="white"/>
</clipPath>
</defs>
</svg>
