<svg width="12" height="10" viewBox="0 0 12 10" fill="none" xmlns="http://www.w3.org/2000/svg">
<path d="M10.7914 0C11.1286 0 11.4143 0.117094 11.6485 0.351282C11.8827 0.585469 11.9998 0.871178 11.9998 1.20841V8.40265C11.9998 8.73988 11.8827 9.02559 11.6485 9.25978C11.4143 9.49397 11.1286 9.61106 10.7914 9.61106H1.20841C0.871178 9.61106 0.585469 9.49397 0.351282 9.25978C0.117094 9.02559 0 8.73988 0 8.40265V1.20841C0 0.871178 0.117094 0.585469 0.351282 0.351282C0.585469 0.117094 0.871178 0 1.20841 0H10.7914ZM10.7914 2.41682V1.20841L5.98584 4.21538L1.20841 1.20841V2.41682L5.98584 5.39568L10.7914 2.41682Z" fill="black"/>
</svg>
