<svg width="17" height="17" viewBox="0 0 17 17" fill="none" xmlns="http://www.w3.org/2000/svg">
<g clip-path="url(#clip0_80_588)">
<path fill-rule="evenodd" clip-rule="evenodd" d="M11.6924 5.68604C11.9056 6.30268 12.0591 6.93221 12.1096 7.58472C12.1723 8.39422 12.1436 9.198 11.9729 9.99421C11.9683 10.0161 11.9584 10.0367 11.9511 10.058C11.8976 10.0581 11.843 10.0514 11.7907 10.0596C11.3486 10.129 10.9068 10.201 10.4651 10.2726C10.0085 10.3466 9.55122 10.4176 9.09541 10.4966C8.93391 10.5245 8.73403 10.4912 8.66882 10.7146C8.66696 10.7207 8.64836 10.7218 8.63761 10.7252L8.65965 9.39031L8.63721 6.16934L8.84997 6.13282C9.19794 6.07584 9.54591 6.01807 9.89415 5.96268C10.3097 5.89668 10.7257 5.83253 11.1415 5.76811C11.3249 5.73956 11.5086 5.71339 11.6924 5.68604Z" fill="#439934"/>
<path fill-rule="evenodd" clip-rule="evenodd" d="M8.19837 14.6166C7.97391 14.4236 7.74163 14.2391 7.52647 14.0362C6.36874 12.9442 5.52193 11.659 5.1049 10.1094C4.99002 9.68298 4.91338 9.24962 4.88881 8.80894C4.87155 8.50055 4.84658 8.18937 4.86836 7.88258C4.9264 7.06658 5.04434 6.25841 5.28366 5.47243L5.29681 5.4541C5.32006 5.48505 5.35352 5.51241 5.36534 5.54734C5.59896 6.2353 5.83085 6.9238 6.06155 7.6127C6.78644 9.77755 7.5104 11.9429 8.23648 14.1072C8.2507 14.1495 8.28748 14.1841 8.31391 14.2222L8.19837 14.6166Z" fill="#45A538"/>
<path fill-rule="evenodd" clip-rule="evenodd" d="M11.6924 5.68608C11.5086 5.71344 11.3248 5.73961 11.1414 5.76789C10.7255 5.83231 10.3096 5.89646 9.894 5.96246C9.54577 6.01785 9.1978 6.07562 8.84983 6.1326L8.63707 6.16912L8.63547 6.03033C8.62843 5.91625 8.61635 5.80229 8.61502 5.68821C8.60586 4.96066 8.60014 4.23311 8.59111 3.50557C8.58553 3.05015 8.57717 2.59487 8.56787 2.13959C8.56216 1.8567 8.55605 1.57368 8.5433 1.29118C8.5364 1.13938 8.51196 0.988371 8.502 0.836566C8.49642 0.749309 8.50412 0.661387 8.50585 0.57373C8.61436 0.783973 8.72047 0.995809 8.83204 1.20446C9.00828 1.53436 9.28904 1.77741 9.54179 2.04264C10.5409 3.09079 11.2503 4.30948 11.6924 5.68608Z" fill="#46A037"/>
<path fill-rule="evenodd" clip-rule="evenodd" d="M8.63775 10.7249C8.64851 10.7215 8.66723 10.7204 8.66896 10.7143C8.73417 10.4909 8.93405 10.5242 9.09555 10.4964C9.55137 10.4175 10.0086 10.3463 10.4652 10.2723C10.907 10.2007 11.3487 10.1287 11.7909 10.0593C11.8432 10.051 11.8978 10.0578 11.9513 10.0577C11.8687 10.3525 11.8036 10.6537 11.6988 10.9405C11.5798 11.2657 11.4358 11.5832 11.283 11.8943C11.0541 12.3585 10.7709 12.7937 10.4392 13.191C10.1844 13.4975 9.90027 13.7808 9.61552 14.0606C9.45813 14.2154 9.27259 14.3414 9.09994 14.4805L9.05518 14.4499L8.89394 14.3121L8.72713 13.9464C8.61319 13.5199 8.55103 13.0812 8.54199 12.6398L8.54505 12.5653L8.56776 12.2431C8.57533 12.1331 8.58542 12.0233 8.59007 11.9131C8.6072 11.517 8.62208 11.121 8.63775 10.7249Z" fill="#409433"/>
<path fill-rule="evenodd" clip-rule="evenodd" d="M8.63765 10.725C8.62198 11.1211 8.6071 11.5171 8.59023 11.9133C8.58559 12.0236 8.57549 12.1334 8.56792 12.2434L8.46632 12.2817C8.24067 11.6174 8.01489 10.9601 7.79402 10.3011C7.42879 9.21085 7.06794 8.11886 6.70323 7.02834C6.40867 6.14812 6.11205 5.26859 5.81339 4.38975C5.79945 4.34858 5.75934 4.31644 5.73145 4.28005L6.3817 3.08447C6.40401 3.12325 6.43349 3.15951 6.44757 3.20121C6.74873 4.09134 7.04835 4.98198 7.34645 5.87314C7.73373 7.03259 8.11862 8.19297 8.50563 9.35256C8.52104 9.39891 8.54654 9.44168 8.57084 9.49361L8.65983 9.39001L8.63765 10.725Z" fill="#4FAA41"/>
<path fill-rule="evenodd" clip-rule="evenodd" d="M5.73144 4.28027C5.75933 4.31666 5.7993 4.3488 5.81338 4.38998C6.11205 5.26881 6.40866 6.14834 6.70323 7.02856C7.06793 8.11909 7.42878 9.21107 7.79402 10.3013C8.01475 10.9602 8.24053 11.6176 8.46631 12.282L8.56791 12.2436L8.5452 12.5658L8.52462 12.64C8.48929 12.9928 8.45954 13.3463 8.41651 13.6983C8.39486 13.8746 8.34891 14.0478 8.31398 14.2225C8.28768 14.1844 8.25076 14.1497 8.23655 14.1075C7.51046 11.943 6.7865 9.77778 6.06161 7.61294C5.83099 6.92399 5.59893 6.23554 5.36541 5.54757C5.35359 5.51264 5.32025 5.48528 5.29688 5.45434L5.73144 4.28027Z" fill="#4AA73C"/>
<path fill-rule="evenodd" clip-rule="evenodd" d="M8.65948 9.39025L8.5705 9.49384C8.54619 9.44191 8.52069 9.39901 8.50529 9.35279C8.1184 8.19321 7.73338 7.03282 7.3461 5.87337C7.04801 4.98222 6.74838 4.09157 6.44722 3.20145C6.43328 3.15975 6.40379 3.12336 6.38135 3.08471L7.18553 2.02686C7.21089 2.06072 7.24702 2.09087 7.26017 2.12899C7.48343 2.78256 7.70469 3.43693 7.92463 4.09169C8.13009 4.70316 8.3325 5.31556 8.54035 5.92623C8.55429 5.96714 8.60277 5.99609 8.63518 6.03062L8.63677 6.16941C8.64447 7.2428 8.65204 8.31659 8.65948 9.39025Z" fill="#57AE47"/>
<path fill-rule="evenodd" clip-rule="evenodd" d="M8.63568 6.03009C8.60328 5.99556 8.5548 5.96661 8.54086 5.9257C8.333 5.31503 8.1306 4.70263 7.92514 4.09116C7.7052 3.43639 7.48393 2.78216 7.26068 2.12846C7.24753 2.09034 7.2114 2.06019 7.18604 2.02632C7.44754 1.77026 7.70095 1.50504 7.97295 1.26079C8.2148 1.04378 8.40924 0.81109 8.41814 0.468168C8.41854 0.453957 8.42597 0.439746 8.43739 0.399902L8.50632 0.573355C8.5046 0.661144 8.49676 0.748934 8.50247 0.836191C8.51243 0.987996 8.53687 1.139 8.54378 1.29081C8.55653 1.5733 8.56264 1.85632 8.56835 2.13921C8.57751 2.5945 8.58588 3.04978 8.59159 3.50519C8.60049 4.23274 8.60633 4.96029 8.6155 5.68783C8.61656 5.80218 8.62851 5.916 8.63568 6.03009Z" fill="#60B24F"/>
<path fill-rule="evenodd" clip-rule="evenodd" d="M8.31379 14.2225C8.34872 14.0478 8.39467 13.8745 8.41632 13.6982C8.45948 13.3464 8.4891 12.9927 8.52443 12.64L8.5332 12.6387L8.54196 12.6401C8.551 13.0815 8.61316 13.5202 8.7271 13.9467C8.70373 13.9776 8.67066 14.005 8.6583 14.0398C8.56175 14.3121 8.47077 14.5865 8.37369 14.8588C8.36041 14.896 8.32348 14.9249 8.29745 14.9576L8.19824 14.6168L8.31379 14.2225Z" fill="#A9AA88"/>
<path fill-rule="evenodd" clip-rule="evenodd" d="M8.29736 14.9576C8.32339 14.9249 8.36045 14.896 8.3736 14.8588C8.47068 14.5865 8.56179 14.3123 8.65821 14.0399C8.67057 14.0051 8.7035 13.9776 8.72701 13.9468L8.89369 14.3125C8.86075 14.3593 8.81533 14.4014 8.797 14.4535L8.47772 15.391C8.46457 15.4286 8.41968 15.4551 8.38967 15.4869L8.29736 14.9576Z" fill="#B6B598"/>
<path fill-rule="evenodd" clip-rule="evenodd" d="M8.39014 15.4868C8.42029 15.4552 8.46504 15.4285 8.47819 15.3909L8.79747 14.4534C8.81567 14.4015 8.86122 14.3593 8.89416 14.3125L9.05553 14.4502C8.97757 14.5273 8.93427 14.6162 8.9603 14.7287L8.91129 14.8892C8.88898 14.9167 8.85671 14.9406 8.84568 14.972C8.73425 15.2912 8.62787 15.6121 8.51564 15.9312C8.50143 15.9717 8.46199 16.0035 8.4341 16.0391C8.41962 15.8549 8.40488 15.671 8.39014 15.4868Z" fill="#C2C1A7"/>
<path fill-rule="evenodd" clip-rule="evenodd" d="M8.43405 16.0391C8.46181 16.0033 8.50126 15.9716 8.5156 15.9312C8.62783 15.6122 8.73421 15.2913 8.84564 14.972C8.85666 14.9407 8.8888 14.9167 8.91125 14.8892L8.84365 15.6256C8.82559 15.6465 8.79942 15.6647 8.79079 15.689C8.71442 15.9033 8.64244 16.1193 8.5658 16.3336C8.55 16.3779 8.51972 16.4169 8.49608 16.4582C8.47509 16.4307 8.43751 16.4042 8.43578 16.3755C8.42901 16.2638 8.43366 16.1513 8.43405 16.0391Z" fill="#CECDB7"/>
<path fill-rule="evenodd" clip-rule="evenodd" d="M8.49609 16.4581C8.51973 16.4167 8.55002 16.3776 8.56582 16.3335C8.64259 16.1193 8.71444 15.9033 8.7908 15.6888C8.79944 15.6645 8.82573 15.6465 8.84366 15.6255L8.84526 16.1089L8.68349 16.5238L8.49609 16.4581Z" fill="#DBDAC7"/>
<path fill-rule="evenodd" clip-rule="evenodd" d="M8.68311 16.5238L8.84487 16.1089L8.87821 16.5998L8.68311 16.5238Z" fill="#EBE9DC"/>
<path fill-rule="evenodd" clip-rule="evenodd" d="M8.96023 14.7287C8.9342 14.6162 8.97736 14.5271 9.05545 14.4502L9.10021 14.4807L8.96023 14.7287Z" fill="#CECDB7"/>
<path fill-rule="evenodd" clip-rule="evenodd" d="M8.54195 12.6398L8.53318 12.6383L8.52441 12.6397L8.545 12.5654L8.54195 12.6398Z" fill="#4FAA41"/>
</g>
<defs>
<clipPath id="clip0_80_588">
<rect width="17" height="17" fill="white"/>
</clipPath>
</defs>
</svg>
